<svg width="24" height="24" viewBox="0 0 24 24" fill="none" xmlns="http://www.w3.org/2000/svg">
<g clip-path="url(#clip0_453_4917)">
<path d="M16 5C16 4.45 15.55 4 15 4L9 4C8.45 4 8 4.45 8 5C8 5.55 8.45 6 9 6L15 6C15.55 6 16 5.55 16 5ZM11 16.01L11 9C11 8.45 11.45 8 12 8C12.55 8 13 8.45 13 9L13 16.01H14.79C15.24 16.01 15.46 16.55 15.14 16.86L12.35 19.64C12.15 19.83 11.84 19.83 11.64 19.64L8.86 16.86C8.54 16.55 8.76 16.01 9.21 16.01H11Z" fill="#1C1D1E"/>
</g>
<defs>
<clipPath id="clip0_453_4917">
<rect width="24" height="24" fill="white"/>
</clipPath>
</defs>
</svg>
