<svg width="20" height="20" viewBox="0 0 20 20" fill="none" xmlns="http://www.w3.org/2000/svg">
<path fill-rule="evenodd" clip-rule="evenodd" d="M19.0906 4.13223H4.87455L4.40677 0.783328C4.34404 0.334204 3.95991 0 3.50643 0H0.909076C0.407007 0 0 0.407014 0 0.909091C0 1.41117 0.407007 1.81818 0.909076 1.81818H2.71552L4.33767 13.4315C4.40041 13.8807 4.78453 14.2149 5.23801 14.2149H17.359C17.7892 14.2149 18.1605 13.9133 18.2488 13.4922L19.9803 5.22775C20.0987 4.66294 19.6677 4.13223 19.0906 4.13223ZM5.12851 5.95041L6.02893 12.3967H16.6207L17.9713 5.95041H5.12851ZM3.46315 17.438C3.46315 18.8627 4.65462 20 6.10379 20C7.55297 20 8.74444 18.8627 8.74444 17.438C8.74444 16.0134 7.55297 14.876 6.10379 14.876C4.65462 14.876 3.46315 16.0134 3.46315 17.438ZM6.92629 17.438C6.92629 17.8391 6.56726 18.1818 6.10379 18.1818C5.64033 18.1818 5.2813 17.8391 5.2813 17.438C5.2813 17.0369 5.64033 16.6942 6.10379 16.6942C6.56726 16.6942 6.92629 17.0369 6.92629 17.438ZM16.4932 20C15.0441 20 13.8526 18.8627 13.8526 17.438C13.8526 16.0134 15.0441 14.876 16.4932 14.876C17.9424 14.876 19.1339 16.0134 19.1339 17.438C19.1339 18.8627 17.9424 20 16.4932 20ZM17.3157 17.438C17.3157 17.8391 16.9567 18.1818 16.4932 18.1818C16.0298 18.1818 15.6707 17.8391 15.6707 17.438C15.6707 17.0369 16.0298 16.6942 16.4932 16.6942C16.9567 16.6942 17.3157 17.0369 17.3157 17.438Z" />
<path fill-rule="evenodd" clip-rule="evenodd" d="M19.0906 4.13223H4.87455L4.40677 0.783328C4.34404 0.334204 3.95991 0 3.50643 0H0.909076C0.407007 0 0 0.407014 0 0.909091C0 1.41117 0.407007 1.81818 0.909076 1.81818H2.71552L4.33767 13.4315C4.40041 13.8807 4.78453 14.2149 5.23801 14.2149H17.359C17.7892 14.2149 18.1605 13.9133 18.2488 13.4922L19.9803 5.22775C20.0987 4.66294 19.6677 4.13223 19.0906 4.13223ZM5.12851 5.95041L6.02893 12.3967H16.6207L17.9713 5.95041H5.12851ZM3.46315 17.438C3.46315 18.8627 4.65462 20 6.10379 20C7.55297 20 8.74444 18.8627 8.74444 17.438C8.74444 16.0134 7.55297 14.876 6.10379 14.876C4.65462 14.876 3.46315 16.0134 3.46315 17.438ZM6.92629 17.438C6.92629 17.8391 6.56726 18.1818 6.10379 18.1818C5.64033 18.1818 5.2813 17.8391 5.2813 17.438C5.2813 17.0369 5.64033 16.6942 6.10379 16.6942C6.56726 16.6942 6.92629 17.0369 6.92629 17.438ZM16.4932 20C15.0441 20 13.8526 18.8627 13.8526 17.438C13.8526 16.0134 15.0441 14.876 16.4932 14.876C17.9424 14.876 19.1339 16.0134 19.1339 17.438C19.1339 18.8627 17.9424 20 16.4932 20ZM17.3157 17.438C17.3157 17.8391 16.9567 18.1818 16.4932 18.1818C16.0298 18.1818 15.6707 17.8391 15.6707 17.438C15.6707 17.0369 16.0298 16.6942 16.4932 16.6942C16.9567 16.6942 17.3157 17.0369 17.3157 17.438Z" />
</svg>
