<svg width="20" height="21" viewBox="0 0 20 21" fill="none" xmlns="http://www.w3.org/2000/svg">
<path fill-rule="evenodd" clip-rule="evenodd" d="M19.0906 4.8768H4.87455L4.40677 1.66744C4.34404 1.23703 3.95991 0.916748 3.50643 0.916748H0.909076C0.407007 0.916748 0 1.3068 0 1.78796C0 2.26912 0.407007 2.65917 0.909076 2.65917H2.71552L4.33767 13.7886C4.40041 14.2191 4.78453 14.5393 5.23801 14.5393H17.359C17.7892 14.5393 18.1605 14.2503 18.2488 13.8468L19.9803 5.92668C20.0987 5.3854 19.6677 4.8768 19.0906 4.8768ZM5.12851 6.61923L6.02893 12.7969H16.6207L17.9713 6.61923H5.12851ZM3.46315 17.6282C3.46315 18.9935 4.65462 20.0834 6.10379 20.0834C7.55297 20.0834 8.74444 18.9935 8.74444 17.6282C8.74444 16.2629 7.55297 15.1729 6.10379 15.1729C4.65462 15.1729 3.46315 16.2629 3.46315 17.6282ZM6.92629 17.6282C6.92629 18.0126 6.56726 18.341 6.10379 18.341C5.64033 18.341 5.2813 18.0126 5.2813 17.6282C5.2813 17.2438 5.64033 16.9154 6.10379 16.9154C6.56726 16.9154 6.92629 17.2438 6.92629 17.6282ZM16.4932 20.0834C15.0441 20.0834 13.8526 18.9935 13.8526 17.6282C13.8526 16.2629 15.0441 15.1729 16.4932 15.1729C17.9424 15.1729 19.1339 16.2629 19.1339 17.6282C19.1339 18.9935 17.9424 20.0834 16.4932 20.0834ZM17.3157 17.6282C17.3157 18.0126 16.9567 18.341 16.4932 18.341C16.0298 18.341 15.6707 18.0126 15.6707 17.6282C15.6707 17.2438 16.0298 16.9154 16.4932 16.9154C16.9567 16.9154 17.3157 17.2438 17.3157 17.6282Z" fill="#52D388"/>
<path fill-rule="evenodd" clip-rule="evenodd" d="M19.0906 4.8768H4.87455L4.40677 1.66744C4.34404 1.23703 3.95991 0.916748 3.50643 0.916748H0.909076C0.407007 0.916748 0 1.3068 0 1.78796C0 2.26912 0.407007 2.65917 0.909076 2.65917H2.71552L4.33767 13.7886C4.40041 14.2191 4.78453 14.5393 5.23801 14.5393H17.359C17.7892 14.5393 18.1605 14.2503 18.2488 13.8468L19.9803 5.92668C20.0987 5.3854 19.6677 4.8768 19.0906 4.8768ZM5.12851 6.61923L6.02893 12.7969H16.6207L17.9713 6.61923H5.12851ZM3.46315 17.6282C3.46315 18.9935 4.65462 20.0834 6.10379 20.0834C7.55297 20.0834 8.74444 18.9935 8.74444 17.6282C8.74444 16.2629 7.55297 15.1729 6.10379 15.1729C4.65462 15.1729 3.46315 16.2629 3.46315 17.6282ZM6.92629 17.6282C6.92629 18.0126 6.56726 18.341 6.10379 18.341C5.64033 18.341 5.2813 18.0126 5.2813 17.6282C5.2813 17.2438 5.64033 16.9154 6.10379 16.9154C6.56726 16.9154 6.92629 17.2438 6.92629 17.6282ZM16.4932 20.0834C15.0441 20.0834 13.8526 18.9935 13.8526 17.6282C13.8526 16.2629 15.0441 15.1729 16.4932 15.1729C17.9424 15.1729 19.1339 16.2629 19.1339 17.6282C19.1339 18.9935 17.9424 20.0834 16.4932 20.0834ZM17.3157 17.6282C17.3157 18.0126 16.9567 18.341 16.4932 18.341C16.0298 18.341 15.6707 18.0126 15.6707 17.6282C15.6707 17.2438 16.0298 16.9154 16.4932 16.9154C16.9567 16.9154 17.3157 17.2438 17.3157 17.6282Z" fill="#52D388"/>

</svg>
