<svg width="20" height="20" viewBox="0 0 20 20" fill="none" xmlns="http://www.w3.org/2000/svg">
<path fill-rule="evenodd" clip-rule="evenodd" d="M3.30579 12.7922H0.909091C0.407014 12.7922 0 12.4101 0 11.9388V1.85338C0 1.38207 0.407014 1 0.909091 1H15.7851C16.2872 1 16.6942 1.38207 16.6942 1.85338V11.9388C16.6942 12.4101 16.2872 12.7922 15.7851 12.7922H10.2913L4.74327 16.5122C4.14158 16.9157 3.30579 16.5119 3.30579 15.8178V12.7922ZM18.1818 4.95658C18.1818 4.48527 18.5888 4.1032 19.0909 4.1032C19.593 4.1032 20 4.48527 20 4.95658V15.042C20 15.5133 19.593 15.8954 19.0909 15.8954H16.6942V18.1452C16.6942 18.8268 15.885 19.2333 15.2809 18.8552L10.5512 15.8954H10C9.49792 15.8954 9.09091 15.5133 9.09091 15.042C9.09091 14.5707 9.49792 14.1886 10 14.1886H10.8264C11.0059 14.1886 11.1814 14.2385 11.3307 14.3319L14.876 16.5506V15.042C14.876 14.5707 15.283 14.1886 15.7851 14.1886H18.1818V4.95658ZM1.81818 2.70676H14.876V11.0854H10C9.81052 11.0854 9.62578 11.141 9.4716 11.2444L5.12397 14.1595V11.9388C5.12397 11.4675 4.71695 11.0854 4.21488 11.0854H1.81818V2.70676Z" fill="white"/>
<path fill-rule="evenodd" clip-rule="evenodd" d="M3.30579 12.7922H0.909091C0.407014 12.7922 0 12.4101 0 11.9388V1.85338C0 1.38207 0.407014 1 0.909091 1H15.7851C16.2872 1 16.6942 1.38207 16.6942 1.85338V11.9388C16.6942 12.4101 16.2872 12.7922 15.7851 12.7922H10.2913L4.74327 16.5122C4.14158 16.9157 3.30579 16.5119 3.30579 15.8178V12.7922ZM18.1818 4.95658C18.1818 4.48527 18.5888 4.1032 19.0909 4.1032C19.593 4.1032 20 4.48527 20 4.95658V15.042C20 15.5133 19.593 15.8954 19.0909 15.8954H16.6942V18.1452C16.6942 18.8268 15.885 19.2333 15.2809 18.8552L10.5512 15.8954H10C9.49792 15.8954 9.09091 15.5133 9.09091 15.042C9.09091 14.5707 9.49792 14.1886 10 14.1886H10.8264C11.0059 14.1886 11.1814 14.2385 11.3307 14.3319L14.876 16.5506V15.042C14.876 14.5707 15.283 14.1886 15.7851 14.1886H18.1818V4.95658ZM1.81818 2.70676H14.876V11.0854H10C9.81052 11.0854 9.62578 11.141 9.4716 11.2444L5.12397 14.1595V11.9388C5.12397 11.4675 4.71695 11.0854 4.21488 11.0854H1.81818V2.70676Z" fill="white"/>
</svg>
