<svg width="20" height="20" viewBox="0 0 20 20" fill="none" xmlns="http://www.w3.org/2000/svg">
<path fill-rule="evenodd" clip-rule="evenodd" d="M17.7449 7.38894C17.2578 7.50986 16.9616 7.99998 17.0834 8.48365C17.2356 9.08805 17.316 9.78687 17.316 10.5C17.316 14.73 13.8269 18.1946 9.5671 18.1946C5.30727 18.1946 1.81818 14.73 1.81818 10.5C1.81818 6.27005 5.30727 2.80543 9.5671 2.80543C11.054 2.80543 12.4434 3.19406 13.674 3.95781C14.0998 4.22204 14.6607 4.09352 14.9268 3.67075C15.1929 3.24797 15.0634 2.69104 14.6377 2.42681C13.1155 1.48212 11.3919 1 9.5671 1C4.30312 1 0 5.27294 0 10.5C0 15.7271 4.30312 20 9.5671 20C14.8311 20 19.1342 15.7271 19.1342 10.5C19.1342 9.64413 19.0369 8.79883 18.8473 8.04577C18.7255 7.5621 18.232 7.26803 17.7449 7.38894ZM18.4481 2.12413L9.5671 10.9428L6.74672 8.14223C6.3917 7.7897 5.81609 7.7897 5.46107 8.14223C5.10605 8.49476 5.10605 9.06633 5.46107 9.41886L8.92428 12.8578C9.2793 13.2103 9.8549 13.2103 10.2099 12.8578L19.7337 3.40076C20.0888 3.04823 20.0888 2.47666 19.7337 2.12413C19.3787 1.7716 18.8031 1.7716 18.4481 2.12413Z" fill="#111111"/>
<mask id="mask0_2_18225" style="mask-type:alpha" maskUnits="userSpaceOnUse" x="0" y="1" width="20" height="19">
<path fill-rule="evenodd" clip-rule="evenodd" d="M17.7449 7.38894C17.2578 7.50986 16.9616 7.99998 17.0834 8.48365C17.2356 9.08805 17.316 9.78687 17.316 10.5C17.316 14.73 13.8269 18.1946 9.5671 18.1946C5.30727 18.1946 1.81818 14.73 1.81818 10.5C1.81818 6.27005 5.30727 2.80543 9.5671 2.80543C11.054 2.80543 12.4434 3.19406 13.674 3.95781C14.0998 4.22204 14.6607 4.09352 14.9268 3.67075C15.1929 3.24797 15.0634 2.69104 14.6377 2.42681C13.1155 1.48212 11.3919 1 9.5671 1C4.30312 1 0 5.27294 0 10.5C0 15.7271 4.30312 20 9.5671 20C14.8311 20 19.1342 15.7271 19.1342 10.5C19.1342 9.64413 19.0369 8.79883 18.8473 8.04577C18.7255 7.5621 18.232 7.26803 17.7449 7.38894ZM18.4481 2.12413L9.5671 10.9428L6.74672 8.14223C6.3917 7.7897 5.81609 7.7897 5.46107 8.14223C5.10605 8.49476 5.10605 9.06633 5.46107 9.41886L8.92428 12.8578C9.2793 13.2103 9.8549 13.2103 10.2099 12.8578L19.7337 3.40076C20.0888 3.04823 20.0888 2.47666 19.7337 2.12413C19.3787 1.7716 18.8031 1.7716 18.4481 2.12413Z" fill="white"/>
</mask>
<g mask="url(#mask0_2_18225)">
<rect width="20" height="20" fill="black"/>
</g>
</svg>
