<svg width="20" height="20" viewBox="0 0 20 20" fill="none" xmlns="http://www.w3.org/2000/svg">
<path fill-rule="evenodd" clip-rule="evenodd" d="M15 6.30602L13.694 5L10 8.69398L6.30602 5L5 6.30602L8.69398 10L5 13.694L6.30602 15L10 11.306L13.694 15L15 13.694L11.306 10L15 6.30602Z" fill="#111111"/>
<mask id="mask0_2_18164" style="mask-type:alpha" maskUnits="userSpaceOnUse" x="5" y="5" width="10" height="10">
<path fill-rule="evenodd" clip-rule="evenodd" d="M15 6.30602L13.694 5L10 8.69398L6.30602 5L5 6.30602L8.69398 10L5 13.694L6.30602 15L10 11.306L13.694 15L15 13.694L11.306 10L15 6.30602ZM11.306 10L10 8.69398L8.69398 10L10 11.306L11.306 10Z" fill="white"/>
</mask>
<g mask="url(#mask0_2_18164)">
<rect width="20" height="20" fill="black"/>
</g>
</svg>
