<svg width="20" height="20" viewBox="0 0 20 20" fill="none" xmlns="http://www.w3.org/2000/svg">
<path fill-rule="evenodd" clip-rule="evenodd" d="M9.16663 0.833333C9.16663 0.373096 9.53972 0 9.99996 0C10.4602 0 10.8333 0.373096 10.8333 0.833333V1.70783C14.7703 2.09872 17.9013 5.22967 18.2921 9.16669H19.1667C19.6269 9.16669 20 9.53978 20 10C20 10.4603 19.6269 10.8334 19.1667 10.8334H18.2921C17.9013 14.7704 14.7703 17.9013 10.8333 18.2922V19.1667C10.8333 19.6269 10.4602 20 9.99996 20C9.53972 20 9.16663 19.6269 9.16663 19.1667V18.2922C5.22961 17.9013 2.09866 14.7704 1.70777 10.8334H0.833333C0.373096 10.8334 0 10.4603 0 10C0 9.53978 0.373096 9.16669 0.833333 9.16669H1.70777C2.09866 5.22967 5.22961 2.09872 9.16663 1.70783V0.833333ZM10 16.6667C13.6819 16.6667 16.6667 13.6819 16.6667 10C16.6667 6.3181 13.6819 3.33333 10 3.33333C6.3181 3.33333 3.33333 6.3181 3.33333 10C3.33333 13.6819 6.3181 16.6667 10 16.6667ZM8.33333 10C8.33333 10.9205 9.07952 11.6667 10 11.6667C10.9205 11.6667 11.6667 10.9205 11.6667 10C11.6667 9.07952 10.9205 8.33333 10 8.33333C9.07952 8.33333 8.33333 9.07952 8.33333 10Z" fill="#111111"/>
<mask id="mask0_2_17898" style="mask-type:alpha" maskUnits="userSpaceOnUse" x="0" y="0" width="20" height="20">
<path fill-rule="evenodd" clip-rule="evenodd" d="M10 0C9.53976 0 9.16667 0.373096 9.16667 0.833333V1.70781C5.22965 2.0987 2.0987 5.22965 1.70781 9.16667H0.833333C0.373096 9.16667 0 9.53976 0 10C0 10.4602 0.373096 10.8333 0.833333 10.8333H1.70781C2.0987 14.7703 5.22965 17.9013 9.16667 18.2922V19.1667C9.16667 19.6269 9.53976 20 10 20C10.4602 20 10.8333 19.6269 10.8333 19.1667V18.2922C14.7703 17.9013 17.9013 14.7703 18.2922 10.8333H19.1667C19.6269 10.8333 20 10.4602 20 10C20 9.53976 19.6269 9.16667 19.1667 9.16667H18.2922C17.9013 5.22965 14.7703 2.0987 10.8333 1.70781V0.833333C10.8333 0.373096 10.4602 0 10 0ZM10.8333 3.38491V1.70781C10.5592 1.6806 10.2812 1.66667 10 1.66667C9.71875 1.66667 9.44076 1.6806 9.16667 1.70781V3.38491C6.15107 3.76095 3.76095 6.15107 3.38491 9.16667H1.70781C1.6806 9.44076 1.66667 9.71875 1.66667 10C1.66667 10.2812 1.6806 10.5592 1.70781 10.8333H3.38491C3.76095 13.8489 6.15107 16.239 9.16667 16.6151V18.2922C9.44076 18.3194 9.71875 18.3333 10 18.3333C10.2812 18.3333 10.5592 18.3194 10.8333 18.2922V16.6151C13.8489 16.239 16.239 13.8489 16.6151 10.8333H18.2922C18.3194 10.5592 18.3333 10.2812 18.3333 10C18.3333 9.71875 18.3194 9.44076 18.2922 9.16667H16.6151C16.239 6.15107 13.8489 3.76095 10.8333 3.38491ZM10.8333 3.38491V4.16667C10.8333 4.6269 10.4602 5 10 5C9.53976 5 9.16667 4.6269 9.16667 4.16667V3.38491C9.43966 3.35087 9.71778 3.33333 10 3.33333C10.2822 3.33333 10.5603 3.35087 10.8333 3.38491ZM16.6151 9.16667C16.6491 9.43966 16.6667 9.71778 16.6667 10C16.6667 10.2822 16.6491 10.5603 16.6151 10.8333H15.8333C15.3731 10.8333 15 10.4602 15 10C15 9.53976 15.3731 9.16667 15.8333 9.16667H16.6151ZM10.8333 16.6151V15.8333C10.8333 15.3731 10.4602 15 10 15C9.53976 15 9.16667 15.3731 9.16667 15.8333V16.6151C9.43966 16.6491 9.71778 16.6667 10 16.6667C10.2822 16.6667 10.5603 16.6491 10.8333 16.6151ZM3.38491 10.8333C3.35087 10.5603 3.33333 10.2822 3.33333 10C3.33333 9.71778 3.35087 9.43966 3.38491 9.16667H4.16667C4.6269 9.16667 5 9.53976 5 10C5 10.4602 4.6269 10.8333 4.16667 10.8333H3.38491ZM8.33333 10C8.33333 10.9205 9.07952 11.6667 10 11.6667C10.9205 11.6667 11.6667 10.9205 11.6667 10C11.6667 9.07952 10.9205 8.33333 10 8.33333C9.07952 8.33333 8.33333 9.07952 8.33333 10Z" fill="white"/>
</mask>
<g mask="url(#mask0_2_17898)">
<rect width="20" height="20" fill="black"/>
</g>
</svg>
