<svg width="20" height="20" viewBox="0 0 20 20" fill="none" xmlns="http://www.w3.org/2000/svg">
<path fill-rule="evenodd" clip-rule="evenodd" d="M2.59259 5.40773C1.16074 5.40773 0 4.19716 0 2.70386C0 1.21056 1.16074 0 2.59259 0C4.02444 0 5.18518 1.21056 5.18518 2.70386C5.18518 3.00928 5.13663 3.30287 5.04713 3.57669L7.45614 5.7026L12.6808 1.09193C13.0798 0.739776 13.6771 0.791676 14.0147 1.20785C14.3524 1.62403 14.3026 2.24688 13.9036 2.59904L8.92143 6.99569L13.9036 11.3923C14.3026 11.7445 14.3524 12.3674 14.0147 12.7835C13.6771 13.1997 13.0798 13.2516 12.6808 12.8995L7.45614 8.28879L5.04713 10.4147C5.13663 10.6885 5.18518 10.9821 5.18518 11.2875C5.18518 12.7808 4.02444 13.9914 2.59259 13.9914C1.16074 13.9914 0 12.7808 0 11.2875C0 9.79424 1.16074 8.58368 2.59259 8.58368C3.03837 8.58368 3.45787 8.70101 3.82424 8.90768L5.99085 6.99569L3.82426 5.08371C3.45788 5.29039 3.03837 5.40773 2.59259 5.40773ZM2.59259 3.43348C2.97896 3.43348 3.29218 3.10682 3.29218 2.70386C3.29218 2.30091 2.97896 1.97425 2.59259 1.97425C2.20622 1.97425 1.893 2.30091 1.893 2.70386C1.893 3.10682 2.20622 3.43348 2.59259 3.43348ZM15.0617 6.99571C15.0617 6.45053 14.638 6.00858 14.1152 6.00858H12.4691C11.9464 6.00858 11.5226 6.45053 11.5226 6.99571C11.5226 7.54088 11.9464 7.98283 12.4691 7.98283H14.1152C14.638 7.98283 15.0617 7.54088 15.0617 6.99571ZM15.0617 19.0129C15.0617 18.4677 14.638 18.0258 14.1152 18.0258H12.4691C11.9464 18.0258 11.5226 18.4677 11.5226 19.0129C11.5226 19.5581 11.9464 20 12.4691 20H14.1152C14.638 20 15.0617 19.5581 15.0617 19.0129ZM9.17695 18.0258C9.69969 18.0258 10.1235 18.4677 10.1235 19.0129C10.1235 19.5581 9.69969 20 9.17695 20H7.53086C7.00813 20 6.58436 19.5581 6.58436 19.0129C6.58436 18.4677 7.00813 18.0258 7.53086 18.0258H9.17695ZM19.0535 14.8498C19.5762 14.8498 20 14.4078 20 13.8627V12.1459C20 11.6007 19.5762 11.1588 19.0535 11.1588C18.5308 11.1588 18.107 11.6007 18.107 12.1459V13.8627C18.107 14.4078 18.5308 14.8498 19.0535 14.8498ZM17.4074 7.98283C16.8847 7.98283 16.4609 7.54088 16.4609 6.99571C16.4609 6.45053 16.8847 6.00858 17.4074 6.00858H19.0535C19.5762 6.00858 20 6.45053 20 6.99571V8.71245C20 9.25762 19.5762 9.69957 19.0535 9.69957C18.5308 9.69957 18.107 9.25762 18.107 8.71245V7.98283H17.4074ZM19.0535 16.309C18.5308 16.309 18.107 16.751 18.107 17.2961V18.0258H17.4074C16.8847 18.0258 16.4609 18.4677 16.4609 19.0129C16.4609 19.5581 16.8847 20 17.4074 20H19.0535C19.5762 20 20 19.5581 20 19.0129V17.2961C20 16.751 19.5762 16.309 19.0535 16.309ZM4.23868 18.0258C4.76142 18.0258 5.18519 18.4677 5.18519 19.0129C5.18519 19.5581 4.76142 20 4.23868 20H2.59259C2.06985 20 1.64609 19.5581 1.64609 19.0129V17.2961C1.64609 16.751 2.06985 16.309 2.59259 16.309C3.11533 16.309 3.53909 16.751 3.53909 17.2961V18.0258H4.23868ZM3.29218 11.2876C3.29218 11.6905 2.97896 12.0172 2.59259 12.0172C2.20622 12.0172 1.893 11.6905 1.893 11.2876C1.893 10.8846 2.20622 10.5579 2.59259 10.5579C2.97896 10.5579 3.29218 10.8846 3.29218 11.2876Z" fill="black"/>
<path fill-rule="evenodd" clip-rule="evenodd" d="M2.59259 5.40773C1.16074 5.40773 0 4.19716 0 2.70386C0 1.21056 1.16074 0 2.59259 0C4.02444 0 5.18518 1.21056 5.18518 2.70386C5.18518 3.00928 5.13663 3.30288 5.04713 3.57671L4.45501 3.05417C4.0759 2.71961 3.51791 2.74974 3.17357 3.11046C3.24847 2.99427 3.29218 2.85439 3.29218 2.70386C3.29218 2.30091 2.97896 1.97425 2.59259 1.97425C2.20622 1.97425 1.893 2.30091 1.893 2.70386C1.893 3.10682 2.20622 3.43348 2.59259 3.43348C2.77887 3.43348 2.94815 3.35755 3.07351 3.23374C2.78924 3.64763 2.85305 4.22666 3.23223 4.56128L3.82424 5.08372C3.45787 5.29039 3.03837 5.40773 2.59259 5.40773ZM5.99084 6.99571L3.82424 5.08372C4.39399 4.76233 4.83527 4.22489 5.04713 3.57671L7.45613 5.70261L5.99084 6.99571ZM7.45613 8.2888L5.99084 6.99571L3.82424 8.9077C3.45787 8.70103 3.03837 8.58369 2.59259 8.58369C1.16074 8.58369 0 9.79425 0 11.2876C0 12.7809 1.16074 13.9914 2.59259 13.9914C4.02444 13.9914 5.18518 12.7809 5.18518 11.2876C5.18518 10.9821 5.13663 10.6885 5.04713 10.4147L7.45613 8.2888ZM3.17356 10.8809C3.5179 11.2417 4.07589 11.2718 4.45501 10.9372L5.04713 10.4147C4.83527 9.76652 4.39399 9.22909 3.82424 8.9077L3.23223 9.43014C2.85305 9.76476 2.78924 10.3438 3.07353 10.7577C2.94816 10.6339 2.77888 10.5579 2.59259 10.5579C2.20622 10.5579 1.893 10.8846 1.893 11.2876C1.893 11.6905 2.20622 12.0172 2.59259 12.0172C2.97896 12.0172 3.29218 11.6905 3.29218 11.2876C3.29218 11.137 3.24847 10.9971 3.17356 10.8809ZM3.17356 10.8809C3.15546 10.862 3.13794 10.8421 3.12108 10.8213C3.10427 10.8006 3.08842 10.7794 3.07353 10.7577C3.11104 10.7947 3.14463 10.8361 3.17356 10.8809ZM7.45613 8.2888L12.6808 12.8995C13.0798 13.2516 13.6771 13.1997 14.0147 12.7836C14.3524 12.3674 14.3026 11.7445 13.9036 11.3924L8.92143 6.99571L13.9036 2.59905C14.3026 2.24689 14.3524 1.62404 14.0147 1.20786C13.6771 0.791687 13.0798 0.739787 12.6808 1.09194L7.45613 5.70261L8.92143 6.99571L7.45613 8.2888ZM3.07351 3.23374C3.08841 3.21205 3.10427 3.19082 3.12108 3.17009C3.13795 3.1493 3.15546 3.12942 3.17357 3.11046C3.14463 3.15534 3.11104 3.19669 3.07351 3.23374ZM14.1152 6.00858C14.638 6.00858 15.0617 6.45053 15.0617 6.99571C15.0617 7.54088 14.638 7.98283 14.1152 7.98283H12.4691C11.9464 7.98283 11.5226 7.54088 11.5226 6.99571C11.5226 6.45053 11.9464 6.00858 12.4691 6.00858H14.1152ZM14.1152 18.0258C14.638 18.0258 15.0617 18.4677 15.0617 19.0129C15.0617 19.5581 14.638 20 14.1152 20H12.4691C11.9464 20 11.5226 19.5581 11.5226 19.0129C11.5226 18.4677 11.9464 18.0258 12.4691 18.0258H14.1152ZM10.1235 19.0129C10.1235 18.4677 9.69969 18.0258 9.17695 18.0258H7.53086C7.00813 18.0258 6.58436 18.4677 6.58436 19.0129C6.58436 19.5581 7.00813 20 7.53086 20H9.17695C9.69969 20 10.1235 19.5581 10.1235 19.0129ZM20 13.8627C20 14.4078 19.5762 14.8498 19.0535 14.8498C18.5308 14.8498 18.107 14.4078 18.107 13.8627V12.1459C18.107 11.6007 18.5308 11.1588 19.0535 11.1588C19.5762 11.1588 20 11.6007 20 12.1459V13.8627ZM16.4609 6.99571C16.4609 7.54088 16.8847 7.98283 17.4074 7.98283H18.107V8.71245C18.107 9.25762 18.5308 9.69957 19.0535 9.69957C19.5762 9.69957 20 9.25762 20 8.71245V6.99571C20 6.45053 19.5762 6.00858 19.0535 6.00858H17.4074C16.8847 6.00858 16.4609 6.45053 16.4609 6.99571ZM18.107 17.2961C18.107 16.751 18.5308 16.309 19.0535 16.309C19.5762 16.309 20 16.751 20 17.2961V19.0129C20 19.5581 19.5762 20 19.0535 20H17.4074C16.8847 20 16.4609 19.5581 16.4609 19.0129C16.4609 18.4677 16.8847 18.0258 17.4074 18.0258H18.107V17.2961ZM5.18519 19.0129C5.18519 18.4677 4.76142 18.0258 4.23868 18.0258H3.53909V17.2961C3.53909 16.751 3.11533 16.309 2.59259 16.309C2.06985 16.309 1.64609 16.751 1.64609 17.2961V19.0129C1.64609 19.5581 2.06985 20 2.59259 20H4.23868C4.76142 20 5.18519 19.5581 5.18519 19.0129Z" fill="black"/>
</svg>
