<svg width="20" height="20" viewBox="0 0 20 20" fill="none" xmlns="http://www.w3.org/2000/svg">
<path fill-rule="evenodd" clip-rule="evenodd" d="M0.909091 2.78378H7.43802V5.12803L7.43799 5.13512V14.8648C7.43799 15.3574 7.845 15.7567 8.34708 15.7567H9.09193C9.13579 17.5553 10.6356 19 12.4794 19C14.3231 19 15.823 17.5553 15.8668 15.7567H19.0909C19.593 15.7567 20 15.3574 20 14.8648V9.99998C20 9.66216 19.8054 9.35333 19.4974 9.20225L16.5656 7.76408L15.8406 4.9188C15.7394 4.52176 15.3758 4.24323 14.9586 4.24323H9.2562V1.89189C9.2562 1.39931 8.84918 1 8.34711 1H0.909091C0.407014 1 0 1.39931 0 1.89189C0 2.38447 0.407014 2.78378 0.909091 2.78378ZM12.4794 12.3514C11.2423 12.3514 10.1601 13.0017 9.56858 13.973H9.25617V6.02701H14.2489L14.9031 8.59468C14.9675 8.84727 15.1412 9.05965 15.3785 9.17609L18.1818 10.5512V13.973H15.3902C14.7986 13.0017 13.7164 12.3514 12.4794 12.3514ZM0.909091 6.83786C0.407014 6.83786 0 6.43855 0 5.94597C0 5.45339 0.407014 5.05408 0.909091 5.05408H5.04132C5.5434 5.05408 5.95041 5.45339 5.95041 5.94597C5.95041 6.43855 5.5434 6.83786 5.04132 6.83786H0.909091ZM5.04132 9.10811C5.5434 9.10811 5.95041 9.50742 5.95041 10C5.95041 10.4926 5.5434 10.8919 5.04132 10.8919H2.56198C2.05991 10.8919 1.65289 10.4926 1.65289 10C1.65289 9.50742 2.05991 9.10811 2.56198 9.10811H5.04132ZM5.04132 13.1622C5.5434 13.1622 5.95041 13.5615 5.95041 14.0541C5.95041 14.5466 5.5434 14.9459 5.04132 14.9459H4.21488C3.7128 14.9459 3.30579 14.5466 3.30579 14.0541C3.30579 13.5615 3.7128 13.1622 4.21488 13.1622H5.04132ZM12.4793 17.2162C13.3466 17.2162 14.0496 16.5265 14.0496 15.6757C14.0496 14.8249 13.3466 14.1351 12.4793 14.1351C11.6121 14.1351 10.9091 14.8249 10.9091 15.6757C10.9091 16.5265 11.6121 17.2162 12.4793 17.2162ZM14.2149 9.18919C14.2149 8.69661 13.8079 8.2973 13.3058 8.2973H12.562V7.56757C12.562 7.07499 12.155 6.67568 11.6529 6.67568C11.1508 6.67568 10.7438 7.07499 10.7438 7.56757V9.18919C10.7438 9.68177 11.1508 10.0811 11.6529 10.0811H13.3058C13.8079 10.0811 14.2149 9.68177 14.2149 9.18919Z" fill="#111111"/>
<mask id="mask0_2_18010" style="mask-type:alpha" maskUnits="userSpaceOnUse" x="0" y="1" width="20" height="18">
<path fill-rule="evenodd" clip-rule="evenodd" d="M7.43802 2.78378H0.909091C0.407014 2.78378 0 2.38447 0 1.89189C0 1.39931 0.407014 1 0.909091 1H8.34711C8.84918 1 9.2562 1.39931 9.2562 1.89189V4.24324H8.34711C7.84503 4.24324 7.43802 4.64256 7.43802 5.13514V2.78378ZM9.0919 15.7568H8.34711C7.84503 15.7568 7.43802 15.3574 7.43802 14.8649V5.13514C7.43802 5.62771 7.84503 6.02703 8.34711 6.02703C8.84918 6.02703 9.2562 5.62771 9.2562 5.13514V4.24324H14.9587C15.3758 4.24324 15.7395 4.52178 15.8406 4.91882L16.5657 7.7641L19.4975 9.20227C19.8055 9.35335 20 9.66218 20 10V14.8649C20 15.3574 19.593 15.7568 19.0909 15.7568H15.8668C15.8674 15.7298 15.8678 15.7028 15.8678 15.6757C15.8678 15.0534 15.6935 14.471 15.3902 13.973H18.1818V10.5512L15.3786 9.17611C15.1412 9.05967 14.9675 8.84729 14.9032 8.59469L14.2489 6.02703H9.2562V13.973H9.56852C9.26521 14.471 9.09091 15.0534 9.09091 15.6757C9.09091 15.7028 9.09124 15.7298 9.0919 15.7568ZM10.9931 15.1771C10.8641 15.5157 10.5314 15.7568 10.1413 15.7568H9.0919C9.13578 17.5553 10.6356 19 12.4793 19C14.3231 19 15.8229 17.5553 15.8668 15.7568H14.8174C14.4273 15.7568 14.0946 15.5157 13.9655 15.1771C13.9641 15.1731 13.9627 15.1691 13.9613 15.1651C13.9592 15.1591 13.957 15.1532 13.9548 15.1473C13.9246 15.0585 13.9083 14.9636 13.9083 14.8649C13.9083 14.3723 14.3153 13.973 14.8174 13.973H15.3902C14.7986 13.0017 13.7164 12.3514 12.4793 12.3514C11.2423 12.3514 10.16 13.0017 9.56852 13.973H10.1413C10.6434 13.973 11.0504 14.3723 11.0504 14.8649C11.0504 14.9636 11.0341 15.0585 11.0039 15.1473C11.0027 15.1506 11.0014 15.1539 11.0002 15.1572C10.9978 15.1638 10.9955 15.1705 10.9931 15.1771ZM10.9931 15.1771C10.9969 15.1673 11.0005 15.1573 11.0039 15.1473C11.2237 14.5567 11.8013 14.1351 12.4793 14.1351C13.1573 14.1351 13.735 14.5567 13.9548 15.1473C13.957 15.1537 13.9592 15.1601 13.9616 15.1665C13.9629 15.17 13.9642 15.1736 13.9655 15.1771C14.02 15.3335 14.0496 15.5012 14.0496 15.6757C14.0496 16.5265 13.3466 17.2162 12.4793 17.2162C11.6121 17.2162 10.9091 16.5265 10.9091 15.6757C10.9091 15.5012 10.9387 15.3335 10.9931 15.1771ZM5.95041 10C5.95041 9.50742 5.5434 9.10811 5.04132 9.10811H2.56198C2.05991 9.10811 1.65289 9.50742 1.65289 10C1.65289 10.4926 2.05991 10.8919 2.56198 10.8919H5.04132C5.5434 10.8919 5.95041 10.4926 5.95041 10ZM5.95041 14.0541C5.95041 13.5615 5.5434 13.1622 5.04132 13.1622H4.21488C3.7128 13.1622 3.30579 13.5615 3.30579 14.0541C3.30579 14.5466 3.7128 14.9459 4.21488 14.9459H5.04132C5.5434 14.9459 5.95041 14.5466 5.95041 14.0541ZM0 5.94595C0 6.43852 0.407014 6.83784 0.909091 6.83784H5.04132C5.5434 6.83784 5.95041 6.43852 5.95041 5.94595C5.95041 5.45337 5.5434 5.05405 5.04132 5.05405H0.909091C0.407014 5.05405 0 5.45337 0 5.94595ZM14.2149 9.18919C14.2149 8.69661 13.8079 8.2973 13.3058 8.2973H12.562V7.56757C12.562 7.07499 12.155 6.67568 11.6529 6.67568C11.1508 6.67568 10.7438 7.07499 10.7438 7.56757V9.18919C10.7438 9.68177 11.1508 10.0811 11.6529 10.0811H13.3058C13.8079 10.0811 14.2149 9.68177 14.2149 9.18919Z" fill="white"/>
</mask>
<g mask="url(#mask0_2_18010)">
<rect width="20" height="20" fill="black"/>
</g>
</svg>
