<svg width="20" height="20" viewBox="0 0 20 20" fill="none" xmlns="http://www.w3.org/2000/svg">
<path fill-rule="evenodd" clip-rule="evenodd" d="M0.947625 8.53439C0.613728 8.99052 0.380584 9.35011 0.254227 9.56588L0 10L0.254227 10.4341C0.380584 10.6499 0.613728 11.0095 0.947625 11.4656C1.50014 12.2204 2.14064 12.9747 2.8647 13.6812C4.97881 15.7441 7.36906 17 10 17C12.6309 17 15.0212 15.7441 17.1353 13.6812C17.8594 12.9747 18.4999 12.2204 19.0524 11.4656C19.3863 11.0095 19.6194 10.6499 19.7458 10.4341L20 10L19.7458 9.56588C19.6194 9.35011 19.3863 8.99052 19.0524 8.53439C18.4999 7.7796 17.8594 7.0253 17.1353 6.31878C15.0212 4.25588 12.6309 3 10 3C7.36906 3 4.97881 4.25588 2.8647 6.31878C2.14064 7.0253 1.50014 7.7796 0.947625 8.53439ZM2.40701 10.4484C2.2914 10.2905 2.18591 10.1404 2.09087 10C2.18591 9.85956 2.2914 9.70949 2.40701 9.55155C2.90533 8.87079 3.48381 8.18954 4.13286 7.55622C5.9419 5.79099 7.92316 4.75 10 4.75C12.0768 4.75 14.0581 5.79099 15.8671 7.55622C16.5162 8.18954 17.0947 8.87079 17.593 9.55155C17.7086 9.70949 17.8141 9.85956 17.9091 10C17.8141 10.1404 17.7086 10.2905 17.593 10.4484C17.0947 11.1292 16.5162 11.8105 15.8671 12.4438C14.0581 14.209 12.0768 15.25 10 15.25C7.92316 15.25 5.9419 14.209 4.13286 12.4438C3.48381 11.8105 2.90533 11.1292 2.40701 10.4484ZM10 13.5C8.01902 13.5 6.41312 11.933 6.41312 10C6.41312 8.067 8.01902 6.5 10 6.5C11.981 6.5 13.5869 8.067 13.5869 10C13.5869 11.933 11.981 13.5 10 13.5ZM11.7934 10C11.7934 10.9665 10.9905 11.75 10 11.75C9.00951 11.75 8.20656 10.9665 8.20656 10C8.20656 9.0335 9.00951 8.25 10 8.25C10.9905 8.25 11.7934 9.0335 11.7934 10Z" fill="black"/>
<path fill-rule="evenodd" clip-rule="evenodd" d="M0.947625 8.53439C0.613728 8.99052 0.380584 9.35011 0.254227 9.56588L0 10L0.254227 10.4341C0.380584 10.6499 0.613728 11.0095 0.947625 11.4656C1.50014 12.2204 2.14064 12.9747 2.8647 13.6812C4.97881 15.7441 7.36906 17 10 17C12.6309 17 15.0212 15.7441 17.1353 13.6812C17.8594 12.9747 18.4999 12.2204 19.0524 11.4656C19.3863 11.0095 19.6194 10.6499 19.7458 10.4341L20 10L19.7458 9.56588C19.6194 9.35011 19.3863 8.99052 19.0524 8.53439C18.4999 7.7796 17.8594 7.0253 17.1353 6.31878C15.0212 4.25588 12.6309 3 10 3C7.36906 3 4.97881 4.25588 2.8647 6.31878C2.14064 7.0253 1.50014 7.7796 0.947625 8.53439ZM2.40701 10.4484C2.2914 10.2905 2.18591 10.1404 2.09087 10C2.18591 9.85956 2.2914 9.70949 2.40701 9.55155C2.90533 8.87079 3.48381 8.18954 4.13286 7.55622C5.9419 5.79099 7.92316 4.75 10 4.75C12.0768 4.75 14.0581 5.79099 15.8671 7.55622C16.5162 8.18954 17.0947 8.87079 17.593 9.55155C17.7086 9.70949 17.8141 9.85956 17.9091 10C17.8141 10.1404 17.7086 10.2905 17.593 10.4484C17.0947 11.1292 16.5162 11.8105 15.8671 12.4438C14.0581 14.209 12.0768 15.25 10 15.25C7.92316 15.25 5.9419 14.209 4.13286 12.4438C3.48381 11.8105 2.90533 11.1292 2.40701 10.4484ZM10 13.5C8.01902 13.5 6.41312 11.933 6.41312 10C6.41312 8.067 8.01902 6.5 10 6.5C11.981 6.5 13.5869 8.067 13.5869 10C13.5869 11.933 11.981 13.5 10 13.5ZM11.7934 10C11.7934 10.9665 10.9905 11.75 10 11.75C9.00951 11.75 8.20656 10.9665 8.20656 10C8.20656 9.0335 9.00951 8.25 10 8.25C10.9905 8.25 11.7934 9.0335 11.7934 10Z" fill="black"/>
</svg>
