<svg width="20" height="20" viewBox="0 0 20 20" fill="none" xmlns="http://www.w3.org/2000/svg">
<path fill-rule="evenodd" clip-rule="evenodd" d="M10 1C9.53976 1 9.16667 1.36631 9.16667 1.81818V4.27273C9.16667 4.7246 9.53976 5.09091 10 5.09091C10.4602 5.09091 10.8333 4.7246 10.8333 4.27273V1.81818C10.8333 1.36631 10.4602 1 10 1ZM2.91074 5.01491C2.58531 4.69539 2.58531 4.17734 2.91074 3.85782C3.23618 3.5383 3.76382 3.5383 4.08926 3.85782L5.83926 5.576C6.16469 5.89552 6.16469 6.41357 5.83926 6.73309C5.51382 7.05261 4.98618 7.05261 4.66074 6.73309L2.91074 5.01491ZM12.5 7.54547C12.8587 7.54547 13.1772 7.77082 13.2906 8.10492L14.7673 12.4545H16.6667C17.0253 12.4545 17.3438 12.6799 17.4572 13.014L19.1239 17.9231C19.3038 18.4529 18.9021 19 18.3333 19H9.99999H9.99995H1.66661C1.09782 19 0.696175 18.4529 0.876044 17.9231L2.54271 13.014C2.65614 12.6799 2.97459 12.4545 3.33328 12.4545H5.23274L6.70946 8.10492C6.82289 7.77082 7.14134 7.54547 7.50003 7.54547H12.5ZM9.99997 15.5945L9.48948 14.0909H10.5105L9.99997 15.5945ZM3.93397 14.0909L2.82285 17.3636H8.84381L7.7327 14.0909H3.93397ZM12.2673 14.0909L11.1562 17.3636H17.1771L16.066 14.0909H12.2673ZM0 10.8182C0 11.2701 0.373096 11.6364 0.833333 11.6364H3.33333C3.79357 11.6364 4.16667 11.2701 4.16667 10.8182C4.16667 10.3663 3.79357 10 3.33333 10H0.833333C0.373096 10 0 10.3663 0 10.8182ZM15.9107 3.85782C16.2362 3.5383 16.7638 3.5383 17.0893 3.85782C17.4147 4.17734 17.4147 4.69539 17.0893 5.01491L15.3393 6.73309C15.0138 7.05261 14.4862 7.05261 14.1607 6.73309C13.8353 6.41357 13.8353 5.89552 14.1607 5.576L15.9107 3.85782ZM20 10.8182C20 10.3663 19.6269 10 19.1667 10H16.6667C16.2064 10 15.8333 10.3663 15.8333 10.8182C15.8333 11.2701 16.2064 11.6364 16.6667 11.6364H19.1667C19.6269 11.6364 20 11.2701 20 10.8182ZM13.0105 12.4545L11.8994 9.18182H8.10063L6.98952 12.4545H13.0105Z" fill="#111111"/>
<mask id="mask0_2_17919" style="mask-type:alpha" maskUnits="userSpaceOnUse" x="0" y="1" width="20" height="18">
<path fill-rule="evenodd" clip-rule="evenodd" d="M10 1C9.53976 1 9.16667 1.36631 9.16667 1.81818V4.27273C9.16667 4.7246 9.53976 5.09091 10 5.09091C10.4602 5.09091 10.8333 4.7246 10.8333 4.27273V1.81818C10.8333 1.36631 10.4602 1 10 1ZM2.91074 5.01491C2.58531 4.69539 2.58531 4.17734 2.91074 3.85782C3.23618 3.5383 3.76382 3.5383 4.08926 3.85782L5.83926 5.576C6.16469 5.89552 6.16469 6.41357 5.83926 6.73309C5.51382 7.05261 4.98618 7.05261 4.66074 6.73309L2.91074 5.01491ZM13.2906 8.1049C13.1771 7.77081 12.8587 7.54545 12.5 7.54545H7.5C7.14131 7.54545 6.82286 7.77081 6.70943 8.1049L5.2327 12.4545H3.33333C2.97464 12.4545 2.65619 12.6799 2.54276 13.014L0.876097 17.9231C0.696227 18.4529 1.09787 19 1.66667 19H10H18.3333C18.9021 19 19.3038 18.4529 19.1239 17.9231L17.4572 13.014C17.3438 12.6799 17.0254 12.4545 16.6667 12.4545H14.7673L13.2906 8.1049ZM10.5105 14.0909H12.2673L11.1562 17.3636H17.1771L16.066 14.0909H14.1667C14.7355 14.0909 15.1371 13.5438 14.9572 13.014L14.7673 12.4545H13.0105L11.8994 9.18182H8.10063L6.98952 12.4545H5.2327L5.04276 13.014C4.86289 13.5438 5.26453 14.0909 5.83333 14.0909H3.93397L2.82285 17.3636H8.84381L7.7327 14.0909H9.48952L10 15.5945L9.20943 17.9231C9.02956 18.4529 9.4312 19 10 19C10.5688 19 10.9704 18.4529 10.7906 17.9231L10 15.5945L10.5105 14.0909ZM10.5105 14.0909H9.48952L9.1239 13.014C9.01047 12.6799 8.69203 12.4545 8.33333 12.4545H11.6667C11.308 12.4545 10.9895 12.6799 10.8761 13.014L10.5105 14.0909ZM0 10.8182C0 11.2701 0.373096 11.6364 0.833333 11.6364H3.33333C3.79357 11.6364 4.16667 11.2701 4.16667 10.8182C4.16667 10.3663 3.79357 10 3.33333 10H0.833333C0.373096 10 0 10.3663 0 10.8182ZM15.9107 3.85782C16.2362 3.5383 16.7638 3.5383 17.0893 3.85782C17.4147 4.17734 17.4147 4.69539 17.0893 5.01491L15.3393 6.73309C15.0138 7.05261 14.4862 7.05261 14.1607 6.73309C13.8353 6.41357 13.8353 5.89552 14.1607 5.576L15.9107 3.85782ZM20 10.8182C20 10.3663 19.6269 10 19.1667 10H16.6667C16.2064 10 15.8333 10.3663 15.8333 10.8182C15.8333 11.2701 16.2064 11.6364 16.6667 11.6364H19.1667C19.6269 11.6364 20 11.2701 20 10.8182Z" fill="white"/>
</mask>
<g mask="url(#mask0_2_17919)">
<rect width="20" height="20" fill="black"/>
</g>
</svg>
