<svg width="58" height="58" viewBox="0 0 58 58" fill="none" xmlns="http://www.w3.org/2000/svg">
<path d="M55 32H35C33.343 32 32 33.343 32 35V55C32 56.657 33.343 58 35 58H55C56.657 58 58 56.657 58 55V35C58 33.343 56.657 32 55 32ZM52 52H38V38H52V52ZM23 32H3C1.343 32 0 33.343 0 35V55C0 56.657 1.343 58 3 58H23C24.657 58 26 56.657 26 55V35C26 33.343 24.657 32 23 32ZM20 52H6V38H20V52ZM55 0H35C33.343 0 32 1.343 32 3V23C32 24.657 33.343 26 35 26H55C56.657 26 58 24.657 58 23V3C58 1.343 56.657 0 55 0ZM52 20H38V6H52V20ZM23 0H3C1.343 0 0 1.343 0 3V23C0 24.657 1.343 26 3 26H23C24.657 26 26 24.657 26 23V3C26 1.343 24.657 0 23 0ZM20 20H6V6H20V20Z" fill="black"/>
</svg>
