<svg width="21" height="20" viewBox="0 0 21 20" fill="none" xmlns="http://www.w3.org/2000/svg">
<path fill-rule="evenodd" clip-rule="evenodd" d="M18.2829 11.119C20.5745 8.68979 20.5745 4.75102 18.2829 2.3218C15.9971 -0.101358 12.2945 -0.107413 10.0016 2.30363C7.7087 -0.107413 4.00603 -0.101358 1.72023 2.3218C-0.571295 4.75102 -0.571295 8.68979 1.72023 11.119L9.35783 19.2173C9.71286 19.5937 10.2886 19.5938 10.6436 19.2174L18.2829 11.119ZM16.9972 9.75602L10.0008 17.1728L3.00603 9.7561C1.42452 8.07956 1.42452 5.36125 3.00596 3.68478C4.5874 2.00832 7.15162 2.00832 8.73306 3.68478C8.92319 3.88633 9.09402 4.10871 9.24406 4.3484C9.60369 4.92289 10.3995 4.92289 10.7591 4.3484C10.9094 4.10828 11.0795 3.88686 11.2701 3.68478C12.8515 2.00832 15.4158 2.00832 16.9972 3.68478C18.5787 5.36125 18.5787 8.07956 16.9972 9.75602Z" fill="#111111"/>
<mask id="mask0_2_18250" style="mask-type:alpha" maskUnits="userSpaceOnUse" x="0" y="0" width="21" height="20">
<path fill-rule="evenodd" clip-rule="evenodd" d="M18.2829 11.119C20.5745 8.68979 20.5745 4.75102 18.2829 2.3218C15.9971 -0.101358 12.2945 -0.107413 10.0016 2.30363C7.7087 -0.107413 4.00603 -0.101358 1.72023 2.3218C-0.571295 4.75102 -0.571295 8.68979 1.72023 11.119L9.35783 19.2173C9.71286 19.5937 10.2886 19.5938 10.6436 19.2174L18.2829 11.119ZM16.9972 9.75602L10.0008 17.1728L3.00603 9.7561C1.42452 8.07956 1.42452 5.36125 3.00596 3.68478C4.5874 2.00832 7.15162 2.00832 8.73306 3.68478C8.92319 3.88633 9.09402 4.10871 9.24406 4.3484C9.60369 4.92289 10.3995 4.92289 10.7591 4.3484C10.9094 4.10828 11.0795 3.88686 11.2701 3.68478C12.8515 2.00832 15.4158 2.00832 16.9972 3.68478C18.5787 5.36125 18.5787 8.07956 16.9972 9.75602Z" fill="white"/>
</mask>
<g mask="url(#mask0_2_18250)">
<rect width="20" height="20" fill="black"/>
</g>
</svg>
