<svg width="20" height="20" viewBox="0 0 20 20" fill="none" xmlns="http://www.w3.org/2000/svg">
<path fill-rule="evenodd" clip-rule="evenodd" d="M9.99997 0C12.9956 0 15.3626 2.2252 15.3626 5.04132V6.61157H17.033C17.567 6.61157 18 7.01859 18 7.52066V19.0909C18 19.593 17.567 20 17.033 20H2.96703C2.43296 20 2 19.593 2 19.0909V7.52066C2 7.01859 2.43296 6.61157 2.96703 6.61157H4.63733V5.04132C4.63733 2.2252 7.00435 0 9.99997 0ZM13.4286 6.61157V5.04132C13.4286 3.22935 11.9275 1.81818 10 1.81818C8.07254 1.81818 6.57143 3.22935 6.57143 5.04132V6.61157H13.4286ZM3.93407 8.42975V18.1818H16.0659V8.42975H3.93407ZM10 13.2231C10.437 13.2231 10.7912 12.8901 10.7912 12.4793C10.7912 12.0685 10.437 11.7355 10 11.7355C9.56303 11.7355 9.20879 12.0685 9.20879 12.4793C9.20879 12.8901 9.56303 13.2231 10 13.2231ZM7.27478 12.4793C7.27478 13.5741 8.00523 14.5085 9.03296 14.8753V15.7851C9.03296 16.2872 9.46591 16.6942 9.99999 16.6942C10.5341 16.6942 10.967 16.2872 10.967 15.7851V14.8754C11.9948 14.5086 12.7253 13.5742 12.7253 12.4793C12.7253 11.0644 11.5052 9.91736 10.0001 9.91736C8.49493 9.91736 7.27478 11.0644 7.27478 12.4793Z" fill="black"/>
<path fill-rule="evenodd" clip-rule="evenodd" d="M10 0C12.9956 0 15.3626 2.2252 15.3626 5.04132V6.61157H13.4286V5.04132C13.4286 3.22935 11.9275 1.81818 10 1.81818C8.07254 1.81818 6.57143 3.22935 6.57143 5.04132V6.61157H4.63736V5.04132C4.63736 2.2252 7.00438 0 10 0ZM4.63736 6.61157V7.52066C4.63736 8.02274 5.07032 8.42975 5.6044 8.42975H3.93407V18.1818H16.0659V8.42975H14.3956C14.9297 8.42975 15.3626 8.02274 15.3626 7.52066V6.61157H17.033C17.567 6.61157 18 7.01858 18 7.52066V19.0909C18 19.593 17.567 20 17.033 20H2.96703C2.43296 20 2 19.593 2 19.0909V7.52066C2 7.01858 2.43296 6.61157 2.96703 6.61157H4.63736ZM9.03297 14.8753C9.3335 14.9826 9.65946 15.0413 10 15.0413C10.3405 15.0413 10.6665 14.9826 10.967 14.8753V15.7851C10.967 16.2872 10.5341 16.6942 10 16.6942C9.46592 16.6942 9.03297 16.2872 9.03297 15.7851V14.8753ZM10 13.2231C10.437 13.2231 10.7912 12.8901 10.7912 12.4793C10.7912 12.0685 10.437 11.7355 10 11.7355C9.56303 11.7355 9.20879 12.0685 9.20879 12.4793C9.20879 12.8901 9.56303 13.2231 10 13.2231ZM10 13.2231C10.5341 13.2231 10.967 13.6302 10.967 14.1322V14.8753C11.9948 14.5086 12.7253 13.5741 12.7253 12.4793C12.7253 11.0644 11.5051 9.91736 10 9.91736C8.49487 9.91736 7.27473 11.0644 7.27473 12.4793C7.27473 13.5741 8.0052 14.5086 9.03297 14.8753V14.1322C9.03297 13.6302 9.46592 13.2231 10 13.2231Z" fill="black"/>
</svg>
