<svg width="20" height="16" viewBox="0 0 20 16" fill="none" xmlns="http://www.w3.org/2000/svg">
<path d="M16.6667 0.5H3.33337C1.95275 0.5 0.833374 1.61937 0.833374 3V13C0.833374 14.3806 1.95275 15.5 3.33337 15.5H16.6667C18.0473 15.5 19.1667 14.3806 19.1667 13V3C19.1667 1.61937 18.0473 0.5 16.6667 0.5ZM16.6667 2.16667C16.763 2.16667 16.8555 2.18292 16.9413 2.21312L10 7.76625L3.05879 2.21312C3.14462 2.18292 3.23712 2.16667 3.33337 2.16667H16.6667ZM16.6667 13.8333H3.33337C2.87317 13.8333 2.50004 13.4602 2.50004 13V3.90042L9.47941 9.48396C9.6315 9.60583 9.81567 9.66667 10 9.66667C10.1844 9.66667 10.3686 9.60583 10.5207 9.48396L17.5 3.90042V13C17.5 13.4602 17.1269 13.8333 16.6667 13.8333Z" fill="black"/>
</svg>
