<svg width="20" height="20" viewBox="0 0 20 20" fill="none" xmlns="http://www.w3.org/2000/svg">
<path fill-rule="evenodd" clip-rule="evenodd" d="M8.45887 3.84752C8.5077 3.6906 8.53543 3.59871 8.56445 3.49468C8.81741 2.58765 8.79834 1.88116 8.27694 1.22836C7.45169 0.0536893 5.5504 0.13987 4.28688 1.02821C1.60433 2.88633 0 5.93553 0 9.27538C0 14.8624 4.47206 19.3541 10.0347 19.3541C14.5319 19.3541 18.4982 16.3061 19.7033 12.0234C20.4342 8.90721 19.9065 5.75254 17.0864 4.29582C15.1116 3.36415 13.4624 3.4789 10.969 4.25641C8.94447 4.88769 8.57812 4.92249 8.24755 4.52406C8.25955 4.53897 8.26957 4.50255 8.30464 4.37502C8.3337 4.26932 8.37998 4.10104 8.45887 3.84752ZM10.0347 17.5216C5.4797 17.5216 1.82449 13.8503 1.82449 9.27538C1.82449 6.53982 3.13249 4.05383 5.32793 2.5331C5.87917 2.14556 6.67263 2.11368 6.78771 2.28707L6.84594 2.3654C6.91404 2.44748 6.91927 2.59992 6.80758 3.0004C6.78481 3.08204 6.76116 3.16041 6.71744 3.3009C6.34632 4.49361 6.29236 5.00247 6.8344 5.683C7.89996 6.96756 8.6591 6.89544 11.5099 6.00649C13.607 5.35258 14.8518 5.26597 16.2816 5.94005C18.0969 6.87842 18.4878 9.21511 17.9374 11.5644C16.9635 15.0224 13.7113 17.5216 10.0347 17.5216ZM14.1812 11.8575C12.7614 11.8575 11.6104 10.7015 11.6104 9.27538C11.6104 7.8493 12.7614 6.69323 14.1812 6.69323C15.6011 6.69323 16.7521 7.8493 16.7521 9.27538C16.7521 10.7015 15.6011 11.8575 14.1812 11.8575ZM14.9276 9.27538C14.9276 9.6894 14.5935 10.025 14.1812 10.025C13.769 10.025 13.4349 9.6894 13.4349 9.27538C13.4349 8.86135 13.769 8.52572 14.1812 8.52572C14.5935 8.52572 14.9276 8.86135 14.9276 9.27538ZM4.2295 11.0246C3.26766 11.0246 2.48794 10.2414 2.48794 9.27538C2.48794 8.30932 3.26766 7.52618 4.2295 7.52618C5.19133 7.52618 5.97105 8.30932 5.97105 9.27538C5.97105 10.2414 5.19133 11.0246 4.2295 11.0246ZM4.14656 9.27538C4.14656 9.22937 4.18369 9.19208 4.2295 9.19208C4.2753 9.19208 4.31243 9.22937 4.31243 9.27538C4.31243 9.32138 4.2753 9.35867 4.2295 9.35867C4.18369 9.35867 4.14656 9.32138 4.14656 9.27538ZM6.30278 15.1893C5.34094 15.1893 4.56122 14.4062 4.56122 13.4401C4.56122 12.4741 5.34094 11.6909 6.30278 11.6909C7.26461 11.6909 8.04433 12.4741 8.04433 13.4401C8.04433 14.4062 7.26461 15.1893 6.30278 15.1893ZM6.21985 13.4401C6.21985 13.3941 6.25698 13.3568 6.30278 13.3568C6.34858 13.3568 6.38571 13.3941 6.38571 13.4401C6.38571 13.4861 6.34858 13.5234 6.30278 13.5234C6.25698 13.5234 6.21985 13.4861 6.21985 13.4401ZM10.864 16.8552C9.90216 16.8552 9.12244 16.0721 9.12244 15.106C9.12244 14.14 9.90216 13.3568 10.864 13.3568C11.8258 13.3568 12.6056 14.14 12.6056 15.106C12.6056 16.0721 11.8258 16.8552 10.864 16.8552ZM10.7811 15.106C10.7811 15.06 10.8182 15.0227 10.864 15.0227C10.9098 15.0227 10.9469 15.06 10.9469 15.106C10.9469 15.152 10.9098 15.1893 10.864 15.1893C10.8182 15.1893 10.7811 15.152 10.7811 15.106Z" fill="black"/>
<path fill-rule="evenodd" clip-rule="evenodd" d="M8.45887 3.84752C8.5077 3.6906 8.53543 3.59871 8.56445 3.49468C8.81741 2.58765 8.79834 1.88116 8.27694 1.22836C7.45169 0.0536893 5.5504 0.13987 4.28688 1.02821C1.60433 2.88633 0 5.93553 0 9.27538C0 14.8624 4.47206 19.3541 10.0347 19.3541C14.5319 19.3541 18.4982 16.3061 19.7033 12.0234C20.4342 8.90721 19.9065 5.75254 17.0864 4.29582C15.1116 3.36415 13.4624 3.4789 10.969 4.25641C8.94447 4.88769 8.57812 4.92249 8.24755 4.52406C8.25955 4.53897 8.26957 4.50255 8.30464 4.37502C8.3337 4.26932 8.37998 4.10104 8.45887 3.84752ZM10.0347 17.5216C5.4797 17.5216 1.82449 13.8503 1.82449 9.27538C1.82449 6.53982 3.13249 4.05383 5.32793 2.5331C5.87917 2.14556 6.67263 2.11368 6.78771 2.28707L6.84594 2.3654C6.91404 2.44748 6.91927 2.59992 6.80758 3.0004C6.78481 3.08204 6.76116 3.16041 6.71744 3.3009C6.34632 4.49361 6.29236 5.00247 6.8344 5.683C7.89996 6.96756 8.6591 6.89544 11.5099 6.00649C13.607 5.35258 14.8518 5.26597 16.2816 5.94005C18.0969 6.87842 18.4878 9.21511 17.9374 11.5644C16.9635 15.0224 13.7113 17.5216 10.0347 17.5216ZM14.1812 11.8575C12.7614 11.8575 11.6104 10.7015 11.6104 9.27538C11.6104 7.8493 12.7614 6.69323 14.1812 6.69323C15.6011 6.69323 16.7521 7.8493 16.7521 9.27538C16.7521 10.7015 15.6011 11.8575 14.1812 11.8575ZM14.9276 9.27538C14.9276 9.6894 14.5935 10.025 14.1812 10.025C13.769 10.025 13.4349 9.6894 13.4349 9.27538C13.4349 8.86135 13.769 8.52572 14.1812 8.52572C14.5935 8.52572 14.9276 8.86135 14.9276 9.27538ZM4.2295 11.0246C3.26766 11.0246 2.48794 10.2414 2.48794 9.27538C2.48794 8.30932 3.26766 7.52618 4.2295 7.52618C5.19133 7.52618 5.97105 8.30932 5.97105 9.27538C5.97105 10.2414 5.19133 11.0246 4.2295 11.0246ZM4.14656 9.27538C4.14656 9.22937 4.18369 9.19208 4.2295 9.19208C4.2753 9.19208 4.31243 9.22937 4.31243 9.27538C4.31243 9.32138 4.2753 9.35867 4.2295 9.35867C4.18369 9.35867 4.14656 9.32138 4.14656 9.27538ZM6.30278 15.1893C5.34094 15.1893 4.56122 14.4062 4.56122 13.4401C4.56122 12.4741 5.34094 11.6909 6.30278 11.6909C7.26461 11.6909 8.04433 12.4741 8.04433 13.4401C8.04433 14.4062 7.26461 15.1893 6.30278 15.1893ZM6.21985 13.4401C6.21985 13.3941 6.25698 13.3568 6.30278 13.3568C6.34858 13.3568 6.38571 13.3941 6.38571 13.4401C6.38571 13.4861 6.34858 13.5234 6.30278 13.5234C6.25698 13.5234 6.21985 13.4861 6.21985 13.4401ZM10.864 16.8552C9.90216 16.8552 9.12244 16.0721 9.12244 15.106C9.12244 14.14 9.90216 13.3568 10.864 13.3568C11.8258 13.3568 12.6056 14.14 12.6056 15.106C12.6056 16.0721 11.8258 16.8552 10.864 16.8552ZM10.7811 15.106C10.7811 15.06 10.8182 15.0227 10.864 15.0227C10.9098 15.0227 10.9469 15.06 10.9469 15.106C10.9469 15.152 10.9098 15.1893 10.864 15.1893C10.8182 15.1893 10.7811 15.152 10.7811 15.106Z" fill="black"/>
</svg>
