<svg width="20" height="20" viewBox="0 0 20 20" fill="none" xmlns="http://www.w3.org/2000/svg">
<path fill-rule="evenodd" clip-rule="evenodd" d="M3.07972 5.63724C3.48138 5.84805 3.97481 5.68736 4.18182 5.27832C5.30441 3.0602 7.54959 1.6664 10 1.6664C12.4504 1.6664 14.6956 3.0602 15.8182 5.27832C16.0252 5.68736 16.5186 5.84805 16.9203 5.63724C17.3219 5.42643 17.4797 4.92394 17.2727 4.51491C15.8695 1.74226 13.063 0 10 0C6.93698 0 4.13051 1.74226 2.72727 4.51491C2.52026 4.92394 2.67806 5.42643 3.07972 5.63724ZM7.87365 7.08529C7.64779 7.48384 7.14743 7.62049 6.75605 7.39048C6.36468 7.16048 6.2305 6.65093 6.45635 6.25237C7.18702 4.96301 8.53776 4.16866 9.99959 4.16866C11.4614 4.16866 12.8122 4.96301 13.5428 6.25237C13.7687 6.65093 13.6345 7.16048 13.2431 7.39048C12.8518 7.62049 12.3514 7.48384 12.1255 7.08529C11.6871 6.31166 10.8767 5.83506 9.99959 5.83506C9.12249 5.83506 8.31205 6.31166 7.87365 7.08529ZM1.77771 12.8531C1.47037 13.2287 1.2551 13.5257 1.13741 13.7054C0.954196 13.9853 0.954196 14.3499 1.13741 14.6298C1.2551 14.8096 1.47037 15.1066 1.77771 15.4821C2.28484 16.1019 2.87231 16.7207 3.53572 17.2998C5.46117 18.9805 7.63028 20 10 20C12.3697 20 14.5388 18.9805 16.4643 17.2998C17.1277 16.7207 17.7152 16.1019 18.2223 15.4821C18.5296 15.1066 18.7449 14.8096 18.8626 14.6298C19.0458 14.3499 19.0458 13.9853 18.8626 13.7054C18.7449 13.5257 18.5296 13.2287 18.2223 12.8531C17.7152 12.2334 17.1277 11.6145 16.4643 11.0354C14.5388 9.35473 12.3697 8.33523 10 8.33523C7.63028 8.33523 5.46117 9.35473 3.53572 11.0354C2.87231 11.6145 2.28484 12.2334 1.77771 12.8531ZM4.60065 16.0346C4.01122 15.5201 3.48646 14.9673 3.03479 14.4153C2.96237 14.3268 2.89629 14.244 2.83671 14.1676C2.89629 14.0912 2.96237 14.0084 3.03479 13.9199C3.48646 13.3679 4.01122 12.8151 4.60065 12.3006C6.25474 10.8568 8.07426 10.0016 10 10.0016C11.9257 10.0016 13.7453 10.8568 15.3994 12.3006C15.9888 12.8151 16.5135 13.3679 16.9652 13.9199C17.0376 14.0084 17.1037 14.0912 17.1633 14.1676C17.1037 14.244 17.0376 14.3268 16.9652 14.4153C16.5135 14.9673 15.9888 15.5201 15.3994 16.0346C13.7453 17.4784 11.9257 18.3336 10 18.3336C8.07426 18.3336 6.25474 17.4784 4.60065 16.0346ZM10 16.6672C8.64439 16.6672 7.54545 15.5481 7.54545 14.1676C7.54545 12.7871 8.64439 11.668 10 11.668C11.3556 11.668 12.4545 12.7871 12.4545 14.1676C12.4545 15.5481 11.3556 16.6672 10 16.6672ZM10.8182 14.1676C10.8182 14.6278 10.4519 15.0008 10 15.0008C9.54813 15.0008 9.18182 14.6278 9.18182 14.1676C9.18182 13.7074 9.54813 13.3344 10 13.3344C10.4519 13.3344 10.8182 13.7074 10.8182 14.1676Z" fill="black"/>
<path fill-rule="evenodd" clip-rule="evenodd" d="M3.07972 5.63724C3.48138 5.84805 3.97481 5.68736 4.18182 5.27832C5.30441 3.0602 7.54959 1.6664 10 1.6664C12.4504 1.6664 14.6956 3.0602 15.8182 5.27832C16.0252 5.68736 16.5186 5.84805 16.9203 5.63724C17.3219 5.42643 17.4797 4.92394 17.2727 4.51491C15.8695 1.74226 13.063 0 10 0C6.93698 0 4.13051 1.74226 2.72727 4.51491C2.52026 4.92394 2.67806 5.42643 3.07972 5.63724ZM7.87365 7.08529C7.64779 7.48384 7.14743 7.62049 6.75605 7.39048C6.36468 7.16048 6.2305 6.65093 6.45635 6.25237C7.18702 4.96301 8.53776 4.16866 9.99959 4.16866C11.4614 4.16866 12.8122 4.96301 13.5428 6.25237C13.7687 6.65093 13.6345 7.16048 13.2431 7.39048C12.8518 7.62049 12.3514 7.48384 12.1255 7.08529C11.6871 6.31166 10.8767 5.83506 9.99959 5.83506C9.12249 5.83506 8.31205 6.31166 7.87365 7.08529ZM1.77771 12.8531C1.47037 13.2287 1.2551 13.5257 1.13741 13.7054C0.954196 13.9853 0.954196 14.3499 1.13741 14.6298C1.2551 14.8096 1.47037 15.1066 1.77771 15.4821C2.28484 16.1019 2.87231 16.7207 3.53572 17.2998C5.46117 18.9805 7.63028 20 10 20C12.3697 20 14.5388 18.9805 16.4643 17.2998C17.1277 16.7207 17.7152 16.1019 18.2223 15.4821C18.5296 15.1066 18.7449 14.8096 18.8626 14.6298C19.0458 14.3499 19.0458 13.9853 18.8626 13.7054C18.7449 13.5257 18.5296 13.2287 18.2223 12.8531C17.7152 12.2334 17.1277 11.6145 16.4643 11.0354C14.5388 9.35473 12.3697 8.33523 10 8.33523C7.63028 8.33523 5.46117 9.35473 3.53572 11.0354C2.87231 11.6145 2.28484 12.2334 1.77771 12.8531ZM4.60065 16.0346C4.01122 15.5201 3.48646 14.9673 3.03479 14.4153C2.96237 14.3268 2.89629 14.244 2.83671 14.1676C2.89629 14.0912 2.96237 14.0084 3.03479 13.9199C3.48646 13.3679 4.01122 12.8151 4.60065 12.3006C6.25474 10.8568 8.07426 10.0016 10 10.0016C11.9257 10.0016 13.7453 10.8568 15.3994 12.3006C15.9888 12.8151 16.5135 13.3679 16.9652 13.9199C17.0376 14.0084 17.1037 14.0912 17.1633 14.1676C17.1037 14.244 17.0376 14.3268 16.9652 14.4153C16.5135 14.9673 15.9888 15.5201 15.3994 16.0346C13.7453 17.4784 11.9257 18.3336 10 18.3336C8.07426 18.3336 6.25474 17.4784 4.60065 16.0346ZM10 16.6672C8.64439 16.6672 7.54545 15.5481 7.54545 14.1676C7.54545 12.7871 8.64439 11.668 10 11.668C11.3556 11.668 12.4545 12.7871 12.4545 14.1676C12.4545 15.5481 11.3556 16.6672 10 16.6672ZM10.8182 14.1676C10.8182 14.6278 10.4519 15.0008 10 15.0008C9.54813 15.0008 9.18182 14.6278 9.18182 14.1676C9.18182 13.7074 9.54813 13.3344 10 13.3344C10.4519 13.3344 10.8182 13.7074 10.8182 14.1676Z" fill="black"/>
</svg>
