<svg width="21" height="21" viewBox="0 0 21 21" fill="none" xmlns="http://www.w3.org/2000/svg">
<path fill-rule="evenodd" clip-rule="evenodd" d="M12.1667 2.16667C11.7064 2.16667 11.3333 1.79357 11.3333 1.33333C11.3333 0.873096 11.7064 0.5 12.1667 0.5C16.7694 0.5 20.5 4.2306 20.5 8.83333C20.5 9.29357 20.1269 9.66667 19.6667 9.66667C19.2064 9.66667 18.8333 9.29357 18.8333 8.83333C18.8333 5.15107 15.8489 2.16667 12.1667 2.16667ZM14.0774 12.4107L12.1667 14.3215L6.67851 8.83333L8.58926 6.92259C8.91469 6.59715 8.91469 6.06951 8.58926 5.74408L4.42259 1.57741C4.09715 1.25197 3.56951 1.25197 3.24408 1.57741L0.744078 4.07741C0.587797 4.23369 0.5 4.44565 0.5 4.66667C0.5 13.4111 7.58893 20.5 16.3333 20.5C16.5543 20.5 16.7663 20.4122 16.9226 20.2559L19.4226 17.7559C19.748 17.4305 19.748 16.9028 19.4226 16.5774L15.2559 12.4107C14.9305 12.0853 14.4028 12.0853 14.0774 12.4107ZM11.5774 16.0893C11.9028 16.4147 12.4305 16.4147 12.7559 16.0893L14.6667 14.1785L17.6548 17.1667L15.9922 18.8293C8.43925 18.6508 2.3492 12.5608 2.17069 5.00782L3.83333 3.34518L6.82149 6.33333L4.91074 8.24408C4.58531 8.56951 4.58531 9.09715 4.91074 9.42259L11.5774 16.0893ZM11.3333 4.66667C11.3333 5.1269 11.7064 5.5 12.1667 5.5C14.0073 5.5 15.5 6.99274 15.5 8.83333C15.5 9.29357 15.8731 9.66667 16.3333 9.66667C16.7936 9.66667 17.1667 9.29357 17.1667 8.83333C17.1667 6.07226 14.9277 3.83333 12.1667 3.83333C11.7064 3.83333 11.3333 4.20643 11.3333 4.66667Z" fill="white"/>
<path fill-rule="evenodd" clip-rule="evenodd" d="M12.1667 2.16667C11.7064 2.16667 11.3333 1.79357 11.3333 1.33333C11.3333 0.873096 11.7064 0.5 12.1667 0.5C16.7694 0.5 20.5 4.2306 20.5 8.83333C20.5 9.29357 20.1269 9.66667 19.6667 9.66667C19.2064 9.66667 18.8333 9.29357 18.8333 8.83333C18.8333 5.15107 15.8489 2.16667 12.1667 2.16667ZM14.0774 12.4107L12.1667 14.3215L6.67851 8.83333L8.58926 6.92259C8.91469 6.59715 8.91469 6.06951 8.58926 5.74408L4.42259 1.57741C4.09715 1.25197 3.56951 1.25197 3.24408 1.57741L0.744078 4.07741C0.587797 4.23369 0.5 4.44565 0.5 4.66667C0.5 13.4111 7.58893 20.5 16.3333 20.5C16.5543 20.5 16.7663 20.4122 16.9226 20.2559L19.4226 17.7559C19.748 17.4305 19.748 16.9028 19.4226 16.5774L15.2559 12.4107C14.9305 12.0853 14.4028 12.0853 14.0774 12.4107ZM11.5774 16.0893C11.9028 16.4147 12.4305 16.4147 12.7559 16.0893L14.6667 14.1785L17.6548 17.1667L15.9922 18.8293C8.43925 18.6508 2.3492 12.5608 2.17069 5.00782L3.83333 3.34518L6.82149 6.33333L4.91074 8.24408C4.58531 8.56951 4.58531 9.09715 4.91074 9.42259L11.5774 16.0893ZM11.3333 4.66667C11.3333 5.1269 11.7064 5.5 12.1667 5.5C14.0073 5.5 15.5 6.99274 15.5 8.83333C15.5 9.29357 15.8731 9.66667 16.3333 9.66667C16.7936 9.66667 17.1667 9.29357 17.1667 8.83333C17.1667 6.07226 14.9277 3.83333 12.1667 3.83333C11.7064 3.83333 11.3333 4.20643 11.3333 4.66667Z" fill="white"/>
</svg>
