<svg width="20" height="20" viewBox="0 0 20 20" fill="none" xmlns="http://www.w3.org/2000/svg">
<path fill-rule="evenodd" clip-rule="evenodd" d="M1.33384 16.3277C2.81454 18.1931 5.97701 18.6589 7.83399 16.8972C9.00825 15.7831 9.22914 14.3801 8.77347 12.9793C8.48622 12.0846 7.78631 11.3043 6.63404 10.8836C5.73273 10.5546 4.73293 10.5587 3.5576 10.5635C3.41312 10.5641 3.266 10.5647 3.11607 10.5647C3.43758 7.15304 5.70637 5.11813 8.74184 3.61728L7.75771 2C5.62386 2.9567 3.79883 4.36138 2.28449 6.21403C-0.768543 9.94913 -0.418627 14.1246 1.33384 16.3277ZM12.3398 16.3277C13.8205 18.1931 16.983 18.6589 18.84 16.8972C20.0142 15.7831 20.2351 14.3801 19.7794 12.9793C19.4922 12.0846 18.7923 11.3043 17.64 10.8836C16.7387 10.5546 15.7389 10.5587 14.5636 10.5635C14.4191 10.5641 14.272 10.5647 14.122 10.5647C14.4436 7.15304 16.7123 5.11813 19.7478 3.61728L18.7637 2C16.6298 2.9567 14.8048 4.36138 13.2905 6.21403C10.2374 9.94913 10.5873 14.1246 12.3398 16.3277Z" fill="#111111"/>
<mask id="mask0_2_18000" style="mask-type:alpha" maskUnits="userSpaceOnUse" x="0" y="2" width="20" height="16">
<path fill-rule="evenodd" clip-rule="evenodd" d="M1.33384 16.3277C2.81454 18.1931 5.97701 18.6589 7.83399 16.8972C9.00825 15.7831 9.22914 14.3801 8.77347 12.9793C8.48622 12.0846 7.78631 11.3043 6.63404 10.8836C5.73273 10.5546 4.73293 10.5587 3.5576 10.5635C3.41312 10.5641 3.266 10.5647 3.11607 10.5647C3.43758 7.15304 5.70637 5.11813 8.74184 3.61728L7.75771 2C5.62386 2.9567 3.79883 4.36138 2.28449 6.21403C-0.768543 9.94913 -0.418627 14.1246 1.33384 16.3277ZM12.3398 16.3277C13.8205 18.1931 16.983 18.6589 18.84 16.8972C20.0142 15.7831 20.2351 14.3801 19.7794 12.9793C19.4922 12.0846 18.7923 11.3043 17.64 10.8836C16.7387 10.5546 15.7389 10.5587 14.5636 10.5635C14.4191 10.5641 14.272 10.5647 14.122 10.5647C14.4436 7.15304 16.7123 5.11813 19.7478 3.61728L18.7637 2C16.6298 2.9567 14.8048 4.36138 13.2905 6.21403C10.2374 9.94913 10.5873 14.1246 12.3398 16.3277Z" fill="white"/>
</mask>
<g mask="url(#mask0_2_18000)">
<rect width="20" height="20" fill="black"/>
</g>
</svg>
