<svg width="20" height="20" viewBox="0 0 20 20" fill="none" xmlns="http://www.w3.org/2000/svg">
<path fill-rule="evenodd" clip-rule="evenodd" d="M1.81818 5.21622H11.111L10.1836 6.12609C9.8286 6.4744 9.8286 7.03911 10.1836 7.38742C10.5386 7.73573 11.1143 7.73573 11.4693 7.38742L13.9486 4.95499C14.1211 4.78575 14.2098 4.56543 14.2147 4.34366C14.2149 4.33077 14.2149 4.31788 14.2147 4.30499C14.2122 4.19206 14.1884 4.08429 14.147 3.98544C14.1026 3.8793 14.0365 3.77985 13.9486 3.69366L11.4693 1.26123C11.1143 0.912924 10.5386 0.912924 10.1836 1.26123C9.8286 1.60953 9.8286 2.17425 10.1836 2.52255L11.1111 3.43243H0.909091C0.407014 3.43243 0 3.83175 0 4.32433V15.6757C0 16.1683 0.407014 16.5676 0.909091 16.5676H3.38843C3.89051 16.5676 4.29752 16.1683 4.29752 15.6757C4.29752 15.1831 3.89051 14.7838 3.38843 14.7838H1.81818V5.21622ZM15.7025 4.32433C15.7025 4.8169 16.1095 5.21622 16.6116 5.21622H18.1819V14.7838H8.88895L9.81641 13.8739C10.1714 13.5256 10.1714 12.9609 9.81641 12.6125C9.46139 12.2642 8.88578 12.2642 8.53076 12.6125L6.05142 15.045C5.96009 15.1346 5.89226 15.2385 5.84792 15.3494C5.80838 15.448 5.78623 15.5552 5.78519 15.6674C5.78517 15.6702 5.78516 15.6729 5.78516 15.6757C5.78516 15.6766 5.78516 15.6774 5.78516 15.6783C5.78582 15.9017 5.87016 16.1057 6.00902 16.2618C6.02412 16.2788 6.03985 16.2952 6.0562 16.311L8.53076 18.7387C8.88578 19.087 9.46139 19.087 9.81641 18.7387C10.1714 18.3904 10.1714 17.8257 9.81641 17.4774L8.88902 16.5676H19.0909C19.593 16.5676 20 16.1683 20 15.6757V4.32433C20 3.83175 19.593 3.43243 19.0909 3.43243H16.6116C16.1095 3.43243 15.7025 3.83175 15.7025 4.32433Z" fill="#111111"/>
<mask id="mask0_2_17868" style="mask-type:alpha" maskUnits="userSpaceOnUse" x="0" y="1" width="20" height="18">
<path fill-rule="evenodd" clip-rule="evenodd" d="M1.81818 5.21622H11.111L10.1836 6.12609C9.8286 6.4744 9.8286 7.03911 10.1836 7.38742C10.5386 7.73573 11.1143 7.73573 11.4693 7.38742L13.9486 4.95499C14.1211 4.78575 14.2098 4.56543 14.2147 4.34366C14.2149 4.33077 14.2149 4.31788 14.2147 4.30499C14.2122 4.19206 14.1884 4.08429 14.147 3.98544C14.1026 3.8793 14.0365 3.77985 13.9486 3.69366L11.4693 1.26123C11.1143 0.912924 10.5386 0.912924 10.1836 1.26123C9.8286 1.60953 9.8286 2.17425 10.1836 2.52255L11.1111 3.43243H0.909091C0.407014 3.43243 0 3.83175 0 4.32433V15.6757C0 16.1683 0.407014 16.5676 0.909091 16.5676H3.38843C3.89051 16.5676 4.29752 16.1683 4.29752 15.6757C4.29752 15.1831 3.89051 14.7838 3.38843 14.7838H1.81818V5.21622ZM15.6916 4.32433C15.6916 4.8169 16.1095 5.21622 16.6116 5.21622H18.1819V14.7838H8.88901L9.81641 13.8739C10.1714 13.5256 10.1714 12.9609 9.81641 12.6126C9.46139 12.2643 8.88578 12.2643 8.53076 12.6126L6.05571 15.0408C6.04087 15.0552 6.02654 15.0701 6.01274 15.0854C5.94788 15.1573 5.89689 15.2371 5.85976 15.3213C5.8121 15.4291 5.78553 15.548 5.78516 15.673C5.78516 15.6739 5.78516 15.6748 5.78516 15.6757C5.78516 15.6784 5.78517 15.6812 5.78519 15.6839C5.78624 15.7971 5.80875 15.9052 5.84894 16.0045C5.89329 16.1144 5.96079 16.2174 6.05142 16.3064L8.53076 18.7388C8.88578 19.0871 9.46139 19.0871 9.81641 18.7388C10.1714 18.3905 10.1714 17.8258 9.81641 17.4775L8.88896 16.5676H19.0909C19.593 16.5676 20 16.1683 20 15.6757V4.32433C20 3.83175 19.593 3.43243 19.0909 3.43243H16.6116C16.1095 3.43243 15.6916 3.83175 15.6916 4.32433Z" fill="white"/>
</mask>
<g mask="url(#mask0_2_17868)">
<rect width="20" height="20" fill="black"/>
</g>
</svg>
