<svg width="11" height="12" viewBox="0 0 11 12" fill="none" xmlns="http://www.w3.org/2000/svg">
<path fill-rule="evenodd" clip-rule="evenodd" d="M5 8.60501C6.98822 8.60501 8.6 6.99323 8.6 5.005C8.6 3.01678 6.98822 1.405 5 1.405C3.01177 1.405 1.4 3.01678 1.4 5.005C1.4 6.99323 3.01177 8.60501 5 8.60501ZM5 10.005C7.76142 10.005 10 7.76643 10 5.005C10 2.24358 7.76142 0.00500488 5 0.00500488C2.23858 0.00500488 0 2.24358 0 5.005C0 7.76643 2.23858 10.005 5 10.005Z" fill="#928C69"/>
<path fill-rule="evenodd" clip-rule="evenodd" d="M10.505 11.5C10.2316 11.7733 9.7884 11.7733 9.51504 11.5L7.50498 9.48991C7.23162 9.21654 7.23162 8.77333 7.50498 8.49996C7.77835 8.22659 8.22157 8.22659 8.49493 8.49996L10.505 10.51C10.7784 10.7834 10.7784 11.2266 10.505 11.5Z" fill="#928C69"/>
</svg>
