<svg width="20" height="20" viewBox="0 0 20 20" fill="none" xmlns="http://www.w3.org/2000/svg">
<path fill-rule="evenodd" clip-rule="evenodd" d="M0 3.95062C0 4.47563 0.407014 4.90123 0.909091 4.90123H14.1322C14.6343 4.90123 15.0413 4.47563 15.0413 3.95062C15.0413 3.42561 14.6343 3 14.1322 3H0.909091C0.407014 3 0 3.42561 0 3.95062ZM16.5289 3.95062C16.5289 4.47563 16.9359 4.90123 17.438 4.90123H19.0909C19.593 4.90123 20 4.47563 20 3.95062C20 3.42561 19.593 3 19.0909 3H17.438C16.9359 3 16.5289 3.42561 16.5289 3.95062ZM2.56198 9.04938C3.06406 9.04938 3.47107 9.47499 3.47107 10C3.47107 10.525 3.06406 10.9506 2.56198 10.9506H0.909091C0.407014 10.9506 0 10.525 0 10C0 9.47499 0.407014 9.04938 0.909091 9.04938H2.56198ZM20 10C20 9.47499 19.593 9.04938 19.0909 9.04938H5.86777C5.36569 9.04938 4.95868 9.47499 4.95868 10C4.95868 10.525 5.36569 10.9506 5.86777 10.9506H19.0909C19.593 10.9506 20 10.525 20 10ZM17.438 17C16.9359 17 16.5289 16.5744 16.5289 16.0494C16.5289 15.5244 16.9359 15.0988 17.438 15.0988H19.0909C19.593 15.0988 20 15.5244 20 16.0494C20 16.5744 19.593 17 19.0909 17H17.438ZM0 16.0494C0 16.5744 0.407014 17 0.909091 17H14.1322C14.6343 17 15.0413 16.5744 15.0413 16.0494C15.0413 15.5244 14.6343 15.0988 14.1322 15.0988H0.909091C0.407014 15.0988 0 15.5244 0 16.0494Z" fill="white"/>
<path fill-rule="evenodd" clip-rule="evenodd" d="M0 3.95062C0 4.47563 0.407014 4.90123 0.909091 4.90123H14.1322C14.6343 4.90123 15.0413 4.47563 15.0413 3.95062C15.0413 3.42561 14.6343 3 14.1322 3H0.909091C0.407014 3 0 3.42561 0 3.95062ZM16.5289 3.95062C16.5289 4.47563 16.9359 4.90123 17.438 4.90123H19.0909C19.593 4.90123 20 4.47563 20 3.95062C20 3.42561 19.593 3 19.0909 3H17.438C16.9359 3 16.5289 3.42561 16.5289 3.95062ZM2.56198 9.04938C3.06406 9.04938 3.47107 9.47499 3.47107 10C3.47107 10.525 3.06406 10.9506 2.56198 10.9506H0.909091C0.407014 10.9506 0 10.525 0 10C0 9.47499 0.407014 9.04938 0.909091 9.04938H2.56198ZM20 10C20 9.47499 19.593 9.04938 19.0909 9.04938H5.86777C5.36569 9.04938 4.95868 9.47499 4.95868 10C4.95868 10.525 5.36569 10.9506 5.86777 10.9506H19.0909C19.593 10.9506 20 10.525 20 10ZM17.438 17C16.9359 17 16.5289 16.5744 16.5289 16.0494C16.5289 15.5244 16.9359 15.0988 17.438 15.0988H19.0909C19.593 15.0988 20 15.5244 20 16.0494C20 16.5744 19.593 17 19.0909 17H17.438ZM0 16.0494C0 16.5744 0.407014 17 0.909091 17H14.1322C14.6343 17 15.0413 16.5744 15.0413 16.0494C15.0413 15.5244 14.6343 15.0988 14.1322 15.0988H0.909091C0.407014 15.0988 0 15.5244 0 16.0494Z" fill="white"/>
</svg>
