<svg width="20" height="20" viewBox="0 0 20 20" fill="none" xmlns="http://www.w3.org/2000/svg">
<path fill-rule="evenodd" clip-rule="evenodd" d="M16.6692 6.66521C16.1534 6.66482 15.6447 6.54414 15.1836 6.31275C14.7225 6.08135 14.3217 5.74561 14.0129 5.33217L6.6518 9.7412C6.66013 9.82869 6.67681 9.90783 6.67681 10.0011C6.67681 10.1078 6.6518 10.2086 6.64347 10.3127L13.9713 14.7284C14.4359 14.0879 15.1139 13.6344 15.8832 13.4498C16.6524 13.2651 17.4622 13.3614 18.1668 13.7213C18.8713 14.0812 19.4242 14.6811 19.7259 15.4127C20.0275 16.1444 20.058 16.9599 19.812 17.7121C19.5659 18.4643 19.0595 19.1039 18.3838 19.5155C17.7082 19.9272 16.9077 20.0838 16.1268 19.9573C15.3459 19.8307 14.6359 19.4293 14.1247 18.8253C13.6134 18.2213 13.3346 17.4545 13.3384 16.663C13.3384 16.5389 13.3634 16.4206 13.3718 16.2998L6.02728 11.9541C5.6163 12.5211 5.03723 12.9442 4.37225 13.1632C3.70726 13.3822 2.99018 13.386 2.32292 13.174C1.65566 12.962 1.07212 12.5451 0.655181 11.9824C0.238239 11.4197 0.00905526 10.7399 0.000262803 10.0395C-0.00852965 9.3391 0.203501 8.65372 0.606187 8.08074C1.00887 7.50775 1.58181 7.07629 2.24353 6.84762C2.90526 6.61896 3.62218 6.60472 4.29245 6.80693C4.96273 7.00915 5.55228 7.41754 5.97737 7.97409L13.3718 3.65087C13.3634 3.54506 13.3384 3.44175 13.3384 3.33261C13.3384 2.67348 13.5337 2.02915 13.8997 1.48111C14.2657 0.933065 14.7859 0.505918 15.3945 0.253681C16.0032 0.00144395 16.6729 -0.0645527 17.3191 0.0640365C17.9652 0.192626 18.5586 0.510023 19.0244 0.976096C19.4902 1.44217 19.8075 2.03598 19.936 2.68244C20.0645 3.32891 19.9986 3.99898 19.7465 4.60794C19.4944 5.21689 19.0675 5.73738 18.5197 6.10357C17.972 6.46976 17.328 6.66521 16.6692 6.66521ZM16.6692 18.3293C16.9986 18.3293 17.3205 18.2316 17.5944 18.0485C17.8683 17.8654 18.0818 17.6052 18.2079 17.3007C18.3339 16.9962 18.3669 16.6612 18.3026 16.3379C18.2383 16.0147 18.0797 15.7178 17.8468 15.4848C17.6139 15.2517 17.3171 15.093 16.9941 15.0287C16.671 14.9644 16.3362 14.9974 16.0319 15.1236C15.7276 15.2497 15.4675 15.4633 15.2845 15.7373C15.1015 16.0113 15.0038 16.3335 15.0038 16.663C15.0038 17.105 15.1793 17.5288 15.4916 17.8413C15.8039 18.1538 16.2275 18.3293 16.6692 18.3293ZM3.34601 8.33151C3.01662 8.33151 2.69468 8.42924 2.42081 8.61233C2.14693 8.79543 1.93341 9.05567 1.80736 9.36015C1.68131 9.66463 1.64837 9.99966 1.71263 10.3229C1.77689 10.6461 1.9355 10.943 2.16842 11.1761C2.40133 11.4091 2.69808 11.5678 3.02114 11.6321C3.3442 11.6964 3.67903 11.6634 3.98334 11.5373C4.28765 11.4112 4.54776 11.1976 4.73076 10.9236C4.91375 10.6495 5.01141 10.3274 5.01141 9.99781C5.01141 9.55588 4.83592 9.13205 4.5236 8.81956C4.21128 8.50707 3.7877 8.33151 3.34601 8.33151ZM16.6692 1.6663C16.3398 1.6663 16.0179 1.76403 15.744 1.94712C15.4701 2.13022 15.2566 2.39046 15.1306 2.69494C15.0045 2.99942 14.9716 3.33446 15.0358 3.65769C15.1001 3.98092 15.2587 4.27782 15.4916 4.51086C15.7245 4.7439 16.0213 4.9026 16.3443 4.96689C16.6674 5.03119 17.0022 4.99818 17.3065 4.87207C17.6109 4.74595 17.871 4.53237 18.054 4.25835C18.237 3.98433 18.3346 3.66217 18.3346 3.33261C18.3346 2.89068 18.1591 2.46684 17.8468 2.15435C17.5345 1.84186 17.1109 1.6663 16.6692 1.6663Z" fill="#A3AED0"/>
</svg>
