<svg width="20" height="20" viewBox="0 0 20 20" fill="none" xmlns="http://www.w3.org/2000/svg">
<path fill-rule="evenodd" clip-rule="evenodd" d="M6.73138 0.458208L3.68735 5.78522H0.909091C0.407014 5.78522 0 6.19223 0 6.6943V10.0001C0 10.5021 0.407014 10.9091 0.909091 10.9091H1.65283V19.0909C1.65283 19.593 2.05985 20 2.56192 20H17.438C17.94 20 18.347 19.593 18.347 19.0909V10.9091H19.0909C19.593 10.9091 20 10.5021 20 10.0001V6.6943C20 6.19223 19.593 5.78522 19.0909 5.78522H16.3127L13.2686 0.458208C13.0195 0.022286 12.4642 -0.129164 12.0283 0.119934C11.5924 0.369032 11.4409 0.92435 11.69 1.36027L14.2186 5.78522H5.78145L8.31001 1.36027C8.55911 0.92435 8.40766 0.369032 7.97173 0.119934C7.53581 -0.129164 6.98048 0.022286 6.73138 0.458208ZM3.47101 18.1818V10.9091H16.5289V18.1818H3.47101ZM1.81818 9.09099H18.1818V7.6034H1.81818V9.09099ZM5.78512 13.3058C5.78512 12.8038 6.19214 12.3968 6.69421 12.3968C7.19629 12.3968 7.60331 12.8038 7.60331 13.3058V15.7852C7.60331 16.2872 7.19629 16.6942 6.69421 16.6942C6.19214 16.6942 5.78512 16.2872 5.78512 15.7852V13.3058ZM9.09091 13.3058C9.09091 12.8038 9.49792 12.3968 10 12.3968C10.5021 12.3968 10.9091 12.8038 10.9091 13.3058V15.7852C10.9091 16.2872 10.5021 16.6942 10 16.6942C9.49792 16.6942 9.09091 16.2872 9.09091 15.7852V13.3058ZM13.3058 12.3968C12.8037 12.3968 12.3967 12.8038 12.3967 13.3058V15.7852C12.3967 16.2872 12.8037 16.6942 13.3058 16.6942C13.8079 16.6942 14.2149 16.2872 14.2149 15.7852V13.3058C14.2149 12.8038 13.8079 12.3968 13.3058 12.3968Z" fill="black"/>
<path fill-rule="evenodd" clip-rule="evenodd" d="M3.76384 7.48362C3.90091 7.56195 4.04979 7.60067 4.19723 7.6034H1.81818V9.09099H2.56198C2.05991 9.09099 1.65289 9.498 1.65289 10.0001V10.9092H0.909091C0.407014 10.9092 0 10.5022 0 10.0001V6.69432C0 6.19225 0.407014 5.78523 0.909091 5.78523H3.68731L3.42556 6.24329C3.17646 6.67921 3.32792 7.23453 3.76384 7.48362ZM3.47107 10.9092V10.0001C3.47107 9.498 3.06406 9.09099 2.56198 9.09099H17.438C16.9359 9.09099 16.5289 9.498 16.5289 10.0001V10.9092H3.47107ZM18.3471 10.9092V10.0001C18.3471 9.498 17.9401 9.09099 17.438 9.09099H18.1818V7.6034H15.8028C15.9502 7.60067 16.0991 7.56195 16.2362 7.48362C16.6721 7.23453 16.8235 6.67921 16.5744 6.24329L16.3127 5.78523H19.0909C19.593 5.78523 20 6.19225 20 6.69432V10.0001C20 10.5022 19.593 10.9092 19.0909 10.9092H18.3471ZM14.2186 5.78523L11.69 1.36027C11.4409 0.92435 11.5924 0.369032 12.0283 0.119934C12.4642 -0.129164 13.0196 0.022286 13.2687 0.458208L16.3127 5.78523H14.2186ZM15.7692 7.6034H15.8028C15.7916 7.60361 15.7804 7.60361 15.7692 7.6034ZM4.23084 7.6034H15.7692C15.4595 7.59767 15.1606 7.43378 14.9958 7.14535L14.2186 5.78523H5.7814L8.30997 1.36027C8.55907 0.92435 8.40762 0.369032 7.9717 0.119934C7.53577 -0.129164 6.98045 0.022286 6.73135 0.458208L3.68731 5.78523H5.7814L5.00419 7.14535C4.83937 7.43378 4.54049 7.59767 4.23084 7.6034ZM4.23084 7.6034H4.19723C4.20845 7.60361 4.21965 7.60361 4.23084 7.6034ZM18.3471 10.9092V19.0909C18.3471 19.593 17.9401 20 17.438 20H2.56198C2.05991 20 1.65289 19.593 1.65289 19.0909V10.9092H3.47107V18.1818H16.5289V10.9092H18.3471ZM9.09091 13.3058C9.09091 12.8038 9.49792 12.3968 10 12.3968C10.5021 12.3968 10.9091 12.8038 10.9091 13.3058V15.7852C10.9091 16.2872 10.5021 16.6942 10 16.6942C9.49792 16.6942 9.09091 16.2872 9.09091 15.7852V13.3058ZM6.69421 12.3968C6.19214 12.3968 5.78512 12.8038 5.78512 13.3058V15.7852C5.78512 16.2872 6.19214 16.6942 6.69421 16.6942C7.19629 16.6942 7.60331 16.2872 7.60331 15.7852V13.3058C7.60331 12.8038 7.19629 12.3968 6.69421 12.3968ZM12.3967 13.3058C12.3967 12.8038 12.8037 12.3968 13.3058 12.3968C13.8079 12.3968 14.2149 12.8038 14.2149 13.3058V15.7852C14.2149 16.2872 13.8079 16.6942 13.3058 16.6942C12.8037 16.6942 12.3967 16.2872 12.3967 15.7852V13.3058Z" fill="black"/>
</svg>
