<svg width="20" height="20" viewBox="0 0 20 20" fill="none" xmlns="http://www.w3.org/2000/svg">
<path fill-rule="evenodd" clip-rule="evenodd" d="M5.49551 8.42975C6.04282 8.42975 6.4865 8.02274 6.4865 7.52066V5.95038H11.7117V7.52066C11.7117 8.02274 12.1554 8.42975 12.7027 8.42975C13.25 8.42975 13.6937 8.02274 13.6937 7.52066V5.95038H16.2162V10.8264C16.2162 11.3285 16.6599 11.7355 17.2072 11.7355C17.7545 11.7355 18.1982 11.3285 18.1982 10.8264V5.04129C18.1982 4.53922 17.7545 4.1322 17.2072 4.1322H13.6928C13.6448 1.84266 11.6064 0 9.09911 0C6.59182 0 4.55341 1.84266 4.50538 4.1322H0.990991C0.443682 4.1322 0 4.53922 0 5.04129V19.0909C0 19.593 0.443682 20 0.990991 20H10.9009C11.4482 20 11.8919 19.593 11.8919 19.0909C11.8919 18.5888 11.4482 18.1818 10.9009 18.1818H1.98198V5.95038H4.50452V7.52066C4.50452 8.02274 4.9482 8.42975 5.49551 8.42975ZM11.7102 4.1322C11.6627 2.84693 10.5117 1.81818 9.09911 1.81818C7.68649 1.81818 6.53553 2.84693 6.48802 4.1322H11.7102ZM15.3153 14.1322C15.3153 13.6302 15.759 13.2231 16.3063 13.2231C16.8536 13.2231 17.2973 13.6302 17.2973 14.1322V15.7025H19.0091C19.5564 15.7025 20.0001 16.1095 20.0001 16.6115C20.0001 17.1136 19.5564 17.5206 19.0091 17.5206H17.2973V19.0909C17.2973 19.593 16.8536 20 16.3063 20C15.759 20 15.3153 19.593 15.3153 19.0909V17.5206H13.6037C13.0564 17.5206 12.6127 17.1136 12.6127 16.6115C12.6127 16.1095 13.0564 15.7025 13.6037 15.7025H15.3153V14.1322Z" fill="white"/>
<path fill-rule="evenodd" clip-rule="evenodd" d="M5.4955 8.42975C6.0428 8.42975 6.48649 8.02274 6.48649 7.52066V5.95041H11.7117V7.52066C11.7117 8.02274 12.1554 8.42975 12.7027 8.42975C13.25 8.42975 13.6937 8.02274 13.6937 7.52066V5.95041H16.2162V10.8264C16.2162 11.3285 16.6599 11.7355 17.2072 11.7355C17.7545 11.7355 18.1982 11.3285 18.1982 10.8264V5.04132C18.1982 4.53925 17.7545 4.13223 17.2072 4.13223H13.6928C13.6448 1.84267 11.6064 0 9.0991 0C6.5918 0 4.55338 1.84267 4.50537 4.13223H0.990991C0.443682 4.13223 0 4.53925 0 5.04132V19.0909C0 19.593 0.443682 20 0.990991 20H10.9009C11.4482 20 11.8919 19.593 11.8919 19.0909C11.8919 18.5888 11.4482 18.1818 10.9009 18.1818H1.98198V5.95041H4.5045V7.52066C4.5045 8.02274 4.94819 8.42975 5.4955 8.42975ZM4.5045 5.95041V4.21488C4.5045 4.18726 4.50479 4.15972 4.50537 4.13223H6.48801C6.487 4.15967 6.48649 4.18722 6.48649 4.21488V5.95041H4.5045ZM11.7102 4.13223C11.7112 4.15967 11.7117 4.18722 11.7117 4.21488V5.95041H13.6937V4.21488C13.6937 4.18726 13.6934 4.15972 13.6928 4.13223H11.7102ZM11.7102 4.13223C11.6627 2.84695 10.5117 1.81818 9.0991 1.81818C7.68647 1.81818 6.5355 2.84695 6.48801 4.13223H11.7102ZM15.3153 14.1322C15.3153 13.6302 15.759 13.2231 16.3063 13.2231C16.8536 13.2231 17.2973 13.6302 17.2973 14.1322V15.7025H15.3153V14.1322ZM15.3153 17.5207H13.6036C13.0563 17.5207 12.6126 17.1136 12.6126 16.6116C12.6126 16.1095 13.0563 15.7025 13.6036 15.7025H15.3153V17.5207ZM15.3153 17.5207H17.2973V19.0909C17.2973 19.593 16.8536 20 16.3063 20C15.759 20 15.3153 19.593 15.3153 19.0909V17.5207ZM17.2973 17.5207V15.7025H19.009C19.5563 15.7025 20 16.1095 20 16.6116C20 17.1136 19.5563 17.5207 19.009 17.5207H17.2973Z" fill="white"/>
</svg>
