<svg width="20" height="20" viewBox="0 0 20 20" fill="none" xmlns="http://www.w3.org/2000/svg">
<path d="M19.2856 6.9542L13.3854 6.05451L10.7498 0.448294C10.5939 0.17052 10.3096 0 10.0024 0C9.69517 0 9.41088 0.17052 9.25497 0.448294L6.61442 6.05451L0.714229 6.9542C0.400351 7.00174 0.139402 7.23212 0.0410811 7.54849C-0.0572397 7.86486 0.0241153 8.21237 0.250946 8.44493L4.52132 12.8113L3.51393 18.978C3.46037 19.306 3.5889 19.6375 3.8455 19.8331C4.10209 20.0286 4.44225 20.0544 4.72296 19.8996L9.99989 16.9889L15.2768 19.8996C15.5575 20.0544 15.8977 20.0286 16.1543 19.8331C16.4109 19.6375 16.5394 19.306 16.4859 18.978L15.4785 12.8113L19.7488 8.44493C19.9756 8.21261 20.0571 7.86542 19.9592 7.54915C19.8613 7.23288 19.6008 7.00228 19.2872 6.9542H19.2856Z" fill="white"/>
<path d="M19.2856 6.9542L13.3854 6.05451L10.7498 0.448294C10.5939 0.17052 10.3096 0 10.0024 0C9.69517 0 9.41088 0.17052 9.25497 0.448294L6.61442 6.05451L0.714229 6.9542C0.400351 7.00174 0.139402 7.23212 0.0410811 7.54849C-0.0572397 7.86486 0.0241153 8.21237 0.250946 8.44493L4.52132 12.8113L3.51393 18.978C3.46037 19.306 3.5889 19.6375 3.8455 19.8331C4.10209 20.0286 4.44225 20.0544 4.72296 19.8996L9.99989 16.9889L15.2768 19.8996C15.5575 20.0544 15.8977 20.0286 16.1543 19.8331C16.4109 19.6375 16.5394 19.306 16.4859 18.978L15.4785 12.8113L19.7488 8.44493C19.9756 8.21261 20.0571 7.86542 19.9592 7.54915C19.8613 7.23288 19.6008 7.00228 19.2872 6.9542H19.2856Z" fill="white"/>
</svg>
