<svg width="20" height="20" viewBox="0 0 20 20" fill="none" xmlns="http://www.w3.org/2000/svg">
<path fill-rule="evenodd" clip-rule="evenodd" d="M5.83456 8.36364H9.16687V18.1818C9.16687 18.6337 9.53986 19 9.99996 19C10.4601 19 10.833 18.6337 10.833 18.1818V8.36364H14.1654C14.8431 8.36364 15.2372 7.61142 14.8434 7.0699L10.6779 1.34262C10.3457 0.885792 9.65434 0.885792 9.32209 1.34262L5.15665 7.0699C4.76279 7.61142 5.15695 8.36364 5.83456 8.36364ZM10 3.22584L7.45341 6.72727L12.5466 6.72727L10 3.22584Z" fill="#111111"/>
<mask id="mask0_2_18318" style="mask-type:alpha" maskUnits="userSpaceOnUse" x="5" y="1" width="10" height="18">
<path fill-rule="evenodd" clip-rule="evenodd" d="M9.16691 8.36364H5.83456C5.15695 8.36364 4.76279 7.61142 5.15665 7.0699L9.32209 1.34262C9.65434 0.885792 10.3457 0.885792 10.6779 1.34262L14.8434 7.0699C15.2372 7.61142 14.8431 8.36364 14.1654 8.36364H10.8331V18.1818C10.8331 18.6337 10.4601 19 10 19C9.5399 19 9.16691 18.6337 9.16691 18.1818V8.36364ZM9.16691 8.36364V7.54545C9.16691 7.09388 9.53941 6.72776 9.99909 6.72727H7.45341L10 3.22584L12.5466 6.72727L10.0009 6.72727C10.4606 6.72776 10.8331 7.09388 10.8331 7.54545V8.36364H9.16691Z" fill="white"/>
</mask>
<g mask="url(#mask0_2_18318)">
<rect width="20" height="20" fill="black"/>
</g>
</svg>
