<svg width="20" height="20" viewBox="0 0 20 20" fill="none" xmlns="http://www.w3.org/2000/svg">
<path fill-rule="evenodd" clip-rule="evenodd" d="M11.6364 5.83456V9.16693H1.81816C1.36629 9.16693 0.999977 9.53992 0.999977 10C0.999977 10.4601 1.36629 10.8331 1.81816 10.8331H11.6364V14.1654C11.6364 14.8431 12.3886 15.2372 12.9301 14.8434L18.6574 10.6779C19.1142 10.3457 19.1142 9.65434 18.6574 9.32209L12.9301 5.15665C12.3886 4.76279 11.6364 5.15695 11.6364 5.83456ZM16.7742 10L13.2727 7.45341V12.5466L16.7742 10Z" fill="black"/>
<path fill-rule="evenodd" clip-rule="evenodd" d="M11.6364 9.16691V5.83456C11.6364 5.15695 12.3886 4.76279 12.9301 5.15665L18.6574 9.32209C19.1142 9.65434 19.1142 10.3457 18.6574 10.6779L12.9301 14.8434C12.3886 15.2372 11.6364 14.8431 11.6364 14.1654V10.8331H1.81818C1.36631 10.8331 1 10.4601 1 10C1 9.5399 1.36631 9.16691 1.81818 9.16691H11.6364ZM11.6364 9.16691H12.4545C12.9061 9.16691 13.2722 9.53941 13.2727 9.99909V7.45341L16.7742 10L13.2727 12.5466V10.0009C13.2722 10.4606 12.9061 10.8331 12.4545 10.8331H11.6364V9.16691Z" fill="black"/>
</svg>
