<svg width="20" height="20" viewBox="0 0 20 20" fill="none" xmlns="http://www.w3.org/2000/svg">
<path fill-rule="evenodd" clip-rule="evenodd" d="M14.1654 11.6364H10.8331V1.81816C10.8331 1.36629 10.4601 0.999977 10 0.999977C9.53994 0.999977 9.16695 1.36629 9.16695 1.81816V11.6364H5.83456C5.15695 11.6364 4.76279 12.3886 5.15664 12.9301L9.32209 18.6574C9.65434 19.1142 10.3457 19.1142 10.6779 18.6574L14.8434 12.9301C15.2372 12.3886 14.8431 11.6364 14.1654 11.6364ZM10 16.7742L12.5466 13.2727H7.45341L10 16.7742Z" fill="#111111"/>
<mask id="mask0_2_18331" style="mask-type:alpha" maskUnits="userSpaceOnUse" x="5" y="1" width="10" height="18">
<path fill-rule="evenodd" clip-rule="evenodd" d="M10.8331 11.6364H14.1654C14.8431 11.6364 15.2372 12.3886 14.8434 12.9301L10.6779 18.6574C10.3457 19.1142 9.65434 19.1142 9.32209 18.6574L5.15664 12.9301C4.76279 12.3886 5.15695 11.6364 5.83456 11.6364H9.16691V1.81818C9.16691 1.36631 9.5399 1 10 1C10.4601 1 10.8331 1.36631 10.8331 1.81818V11.6364ZM10.8331 11.6364V12.4545C10.8331 12.9061 10.4606 13.2722 10.0009 13.2727H12.5466L10 16.7742L7.45341 13.2727H9.99909C9.53941 13.2722 9.16691 12.9061 9.16691 12.4545V11.6364H10.8331Z" fill="white"/>
</mask>
<g mask="url(#mask0_2_18331)">
<rect width="20" height="20" fill="black"/>
</g>
</svg>
