<svg width="24" height="24" viewBox="0 0 24 24" fill="none" xmlns="http://www.w3.org/2000/svg">
<path d="M22.5913 10.7739H10.9043C10.1217 10.7739 9.49565 10.1478 9.49565 9.36519V5.84345C9.49565 5.06084 10.1217 4.43475 10.9043 4.43475H22.5652C23.3478 4.43475 23.9739 5.06084 23.9739 5.84345V9.36519C24 10.1478 23.3739 10.7739 22.5913 10.7739ZM11.5826 8.68693H21.913V6.52171H11.5826V8.68693ZM22.5913 19.5652H10.9043C10.1217 19.5652 9.49565 18.9391 9.49565 18.1565V14.6348C9.49565 13.8521 10.1217 13.2261 10.9043 13.2261H22.5652C23.3478 13.2261 23.9739 13.8521 23.9739 14.6348V18.1565C24 18.9391 23.3739 19.5652 22.5913 19.5652ZM11.5826 17.4782H21.913V15.313H11.5826V17.4782ZM6.18261 10.7739H1.46087C0.652174 10.7739 0 10.1217 0 9.31301V5.89562C0 5.08693 0.652174 4.43475 1.46087 4.43475H6.18261C6.99131 4.43475 7.64348 5.08693 7.64348 5.89562V9.3391C7.64348 10.1217 6.99131 10.7739 6.18261 10.7739ZM2.08696 8.68693H5.55652V6.52171H2.08696V8.68693ZM6.18261 19.5652H1.46087C0.652174 19.5652 0 18.913 0 18.1043V14.6608C0 13.8521 0.652174 13.2 1.46087 13.2H6.18261C6.99131 13.2 7.64348 13.8521 7.64348 14.6608V18.1043C7.64348 18.913 6.99131 19.5652 6.18261 19.5652ZM2.08696 17.4782H5.55652V15.313H2.08696V17.4782Z" fill="black"/>
</svg>
