<svg width="24" height="24" viewBox="0 0 24 24" fill="none" xmlns="http://www.w3.org/2000/svg">
<path d="M9.10434 10.6174H1.9826C1.1739 10.6174 0.521729 9.96524 0.521729 9.15654V3.54784C0.521729 2.73915 1.1739 2.08698 1.9826 2.08698H9.10434C9.91303 2.08698 10.5652 2.73915 10.5652 3.54784V9.15654C10.5652 9.96524 9.91303 10.6174 9.10434 10.6174ZM2.60868 8.53045H8.47825V4.17393H2.60868V8.53045ZM22.0174 10.6174H14.8956C14.0869 10.6174 13.4348 9.96524 13.4348 9.15654V3.54784C13.4348 2.73915 14.0869 2.08698 14.8956 2.08698H22.0174C22.8261 2.08698 23.4782 2.73915 23.4782 3.54784V9.15654C23.4782 9.96524 22.8261 10.6174 22.0174 10.6174ZM15.5217 8.53045H21.3913V4.17393H15.5217V8.53045ZM9.10434 21.9131H1.9826C1.1739 21.9131 0.521729 21.2609 0.521729 20.4522V14.8435C0.521729 14.0348 1.1739 13.3826 1.9826 13.3826H9.10434C9.91303 13.3826 10.5652 14.0348 10.5652 14.8435V20.4522C10.5652 21.2609 9.91303 21.9131 9.10434 21.9131ZM2.60868 19.8261H8.47825V15.4696H2.60868V19.8261ZM22.0174 21.9131H14.8956C14.0869 21.9131 13.4348 21.2609 13.4348 20.4522V14.8435C13.4348 14.0348 14.0869 13.3826 14.8956 13.3826H22.0174C22.8261 13.3826 23.4782 14.0348 23.4782 14.8435V20.4522C23.4782 21.2609 22.8261 21.9131 22.0174 21.9131ZM15.5217 19.8261H21.3913V15.4696H15.5217V19.8261Z" fill="black"/>
</svg>
