<svg width="24" height="24" viewBox="0 0 24 24" fill="none" xmlns="http://www.w3.org/2000/svg">
<path d="M22.0391 16.9131H1.9826C1.1739 16.9131 0.521729 16.261 0.521729 15.4523V3.46093C0.521729 2.65224 1.1739 2.00006 1.9826 2.00006L22.0391 2.00006C22.8478 2.00006 23.5 2.65224 23.5 3.46093V15.4523C23.5 16.261 22.8478 16.9131 22.0391 16.9131ZM2.60869 14.8262H21.413V4.08702H2.60869V14.8262Z" fill="black"/>
<path d="M2.00002 19.1088H22.0391C22.7696 19.1088 23.3435 19.6827 23.3435 20.4131C23.3435 21.1436 22.7696 21.7175 22.0391 21.7175H2.00002C1.26959 21.7175 0.695674 21.1436 0.695674 20.4131C0.695674 19.6827 1.26959 19.1088 2.00002 19.1088Z" fill="black"/>
</svg>
