<svg width="24" height="24" viewBox="0 0 24 24" fill="none" xmlns="http://www.w3.org/2000/svg">
<path d="M6.67825 3.6522C6.67825 2.92176 7.25216 2.34785 7.9826 2.34785H22.4348C23.1652 2.34785 23.7391 2.92176 23.7391 3.6522C23.7391 4.38263 23.1652 4.95655 22.4348 4.95655H7.9826C7.25216 4.95655 6.67825 4.38263 6.67825 3.6522ZM22.4348 10.6957H7.9826C7.25216 10.6957 6.67825 11.2696 6.67825 12C6.67825 12.7305 7.25216 13.3044 7.9826 13.3044H22.4348C23.1652 13.3044 23.7391 12.7305 23.7391 12C23.7391 11.2696 23.1652 10.6957 22.4348 10.6957ZM22.4348 19.0435H7.9826C7.25216 19.0435 6.67825 19.6174 6.67825 20.3478C6.67825 21.0783 7.25216 21.6522 7.9826 21.6522H22.4348C23.1652 21.6522 23.7391 21.0783 23.7391 20.3478C23.7391 19.6174 23.1652 19.0435 22.4348 19.0435ZM2.34782 10.2783C1.33042 10.2783 0.521729 11.1131 0.521729 12.1305C0.521729 13.1479 1.33042 13.9826 2.34782 13.9826C3.36521 13.9826 4.1739 13.1479 4.1739 12.1305C4.1739 11.1131 3.33912 10.2783 2.34782 10.2783ZM2.34782 1.82611C1.33042 1.82611 0.521729 2.66089 0.521729 3.67828C0.521729 4.69568 1.33042 5.53046 2.34782 5.53046C3.36521 5.53046 4.1739 4.69568 4.1739 3.67828C4.1739 2.66089 3.33912 1.82611 2.34782 1.82611ZM2.34782 18.4696C1.33042 18.4696 0.521729 19.3044 0.521729 20.3218C0.521729 21.3392 1.33042 22.1739 2.34782 22.1739C3.36521 22.1739 4.1739 21.3392 4.1739 20.3218C4.1739 19.3044 3.33912 18.4696 2.34782 18.4696Z" fill="black"/>
</svg>
