<svg width="14" height="14" viewBox="0 0 14 14" fill="none" xmlns="http://www.w3.org/2000/svg">
<path d="M6.99998 2.33325C4.08331 2.33325 1.59248 4.14742 0.583313 6.70825C1.59248 9.26908 4.08331 11.0833 6.99998 11.0833C9.91665 11.0833 12.4075 9.26908 13.4166 6.70825C12.4075 4.14742 9.91665 2.33325 6.99998 2.33325ZM6.99998 9.62492C5.38998 9.62492 4.08331 8.31825 4.08331 6.70825C4.08331 5.09825 5.38998 3.79159 6.99998 3.79159C8.60998 3.79159 9.91665 5.09825 9.91665 6.70825C9.91665 8.31825 8.60998 9.62492 6.99998 9.62492ZM6.99998 4.95825C6.03165 4.95825 5.24998 5.73992 5.24998 6.70825C5.24998 7.67659 6.03165 8.45825 6.99998 8.45825C7.96831 8.45825 8.74998 7.67659 8.74998 6.70825C8.74998 5.73992 7.96831 4.95825 6.99998 4.95825Z" fill="#A3AED0"/>
</svg>
