<svg width="20" height="20" viewBox="0 0 20 20" fill="none" xmlns="http://www.w3.org/2000/svg">
<path fill-rule="evenodd" clip-rule="evenodd" d="M7.62373 1.81818C7.14253 1.81818 6.75244 1.41117 6.75244 0.909091C6.75244 0.407014 7.14253 0 7.62373 0H9.99995H12.3762C12.8574 0 13.2475 0.407014 13.2475 0.909091C13.2475 1.41117 12.8574 1.81818 12.3762 1.81818H10.8677C10.8277 2.28153 10.4544 2.64463 9.99995 2.64463C9.54545 2.64463 9.17223 2.28153 9.13221 1.81818H7.62373ZM2 11.6529C2 16.2629 5.58172 20 10 20C14.4183 20 18 16.2629 18 11.6529C18 7.04291 14.4183 3.30579 10 3.30579C5.58172 3.30579 2 7.04291 2 11.6529ZM14.0396 11.6529C14.0396 11.1508 13.6495 10.7438 13.1683 10.7438H10.8713V8.34711C10.8713 7.84503 10.4812 7.43802 10 7.43802C9.5188 7.43802 9.12871 7.84503 9.12871 8.34711V11.6529C9.12871 12.155 9.5188 12.562 10 12.562H13.1683C13.6495 12.562 14.0396 12.155 14.0396 11.6529ZM10 18.1818C13.4559 18.1818 16.2574 15.2587 16.2574 11.6529C16.2574 8.04707 13.4559 5.12397 10 5.12397C6.54412 5.12397 3.74257 8.04707 3.74257 11.6529C3.74257 15.2587 6.54412 18.1818 10 18.1818Z" fill="#111111"/>
<path fill-rule="evenodd" clip-rule="evenodd" d="M7.62376 1.81818C7.14256 1.81818 6.75248 1.41117 6.75248 0.909091C6.75248 0.407014 7.14256 0 7.62376 0H10C9.5188 0 9.12871 0.407014 9.12871 0.909091V1.73554C9.12871 1.7634 9.12991 1.79096 9.13226 1.81818H7.62376ZM10.8677 1.81818C10.8277 2.28153 10.4545 2.64463 10 2.64463C9.5455 2.64463 9.17228 2.28153 9.13226 1.81818H10.8677ZM10.8677 1.81818C10.8701 1.79096 10.8713 1.7634 10.8713 1.73554V0.909091C10.8713 0.407014 10.4812 0 10 0H12.3762C12.8574 0 13.2475 0.407014 13.2475 0.909091C13.2475 1.41117 12.8574 1.81818 12.3762 1.81818H10.8677ZM10 20C5.58172 20 2 16.2629 2 11.6529C2 7.04291 5.58172 3.30579 10 3.30579C14.4183 3.30579 18 7.04291 18 11.6529C18 16.2629 14.4183 20 10 20ZM13.1683 10.7438C13.6495 10.7438 14.0396 11.1508 14.0396 11.6529C14.0396 12.155 13.6495 12.562 13.1683 12.562H10C9.5188 12.562 9.12871 12.155 9.12871 11.6529V8.34711C9.12871 7.84503 9.5188 7.43802 10 7.43802C10.4812 7.43802 10.8713 7.84503 10.8713 8.34711V10.7438H13.1683ZM16.2574 11.6529C16.2574 15.2587 13.4559 18.1818 10 18.1818C6.54412 18.1818 3.74257 15.2587 3.74257 11.6529C3.74257 8.04707 6.54412 5.12397 10 5.12397C13.4559 5.12397 16.2574 8.04707 16.2574 11.6529Z" fill="#111111"/>
</svg>
