<svg fill="none" xmlns="http://www.w3.org/2000/svg" xmlns:xlink="http://www.w3.org/1999/xlink">
	<!-- Корзина в шапке -->
	<symbol id="bag" viewBox="0 0 20 20">
		<path fill-rule="evenodd" clip-rule="evenodd" d="M0 19.0909C0 19.593 0.443682 20 0.990991 20H19.009C19.5563 20 20 19.593 20 19.0909V4.21488C20 3.96881 19.8934 3.74558 19.7203 3.5819L19.7097 3.57205L16.1061 0.266267C15.9203 0.0957789 15.6682 0 15.4054 0H4.59459C4.33177 0 4.07971 0.0957789 3.89386 0.266267L0.290255 3.57205L0.279678 3.5819C0.106569 3.74558 0 3.96881 0 4.21488V19.0909ZM18.018 18.1818V4.59143L14.9949 1.81818H5.00508L1.98198 4.59143V18.1818H18.018ZM14.5045 7.43802C13.9572 7.43802 13.5135 7.84503 13.5135 8.34711C13.5135 10.1591 11.9752 11.5702 10 11.5702C8.02479 11.5702 6.48649 10.1591 6.48649 8.34711C6.48649 7.84503 6.0428 7.43802 5.4955 7.43802C4.94819 7.43802 4.5045 7.84503 4.5045 8.34711C4.5045 11.1632 6.93017 13.3884 10 13.3884C13.0698 13.3884 15.4955 11.1632 15.4955 8.34711C15.4955 7.84503 15.0518 7.43802 14.5045 7.43802Z"/>
		<path fill-rule="evenodd" clip-rule="evenodd" d="M20 4.21488V19.0909C20 19.593 19.5563 20 19.009 20H0.990991C0.443682 20 0 19.593 0 19.0909V4.21488C0 4.71695 0.443682 5.12397 0.990991 5.12397H1.98198V18.1818H18.018V5.12397H19.009C19.5563 5.12397 20 4.71695 20 4.21488ZM20 4.21488C20 3.97377 19.8956 3.74254 19.7097 3.57205C19.8891 3.73656 20 3.96384 20 4.21488ZM16.6165 3.30579L14.9949 1.81818H5.00508L3.38345 3.30579H0.990991C0.717336 3.30579 0.469589 3.40754 0.290255 3.57205L3.89386 0.266267C4.07971 0.0957789 4.33177 0 4.59459 0H15.4054C15.6682 0 15.9203 0.0957789 16.1061 0.266267L19.7097 3.57205C19.5304 3.40754 19.2827 3.30579 19.009 3.30579H16.6165ZM0.290255 3.57205C0.104408 3.74254 0 3.97377 0 4.21488C0 3.96384 0.110921 3.73656 0.290255 3.57205ZM16.6165 3.30579L18.018 4.59143V5.12397H1.98198V4.59143L3.38345 3.30579H16.6165ZM14.5045 7.43802C13.9572 7.43802 13.5135 7.84503 13.5135 8.34711C13.5135 10.1591 11.9752 11.5702 10 11.5702C8.02479 11.5702 6.48649 10.1591 6.48649 8.34711C6.48649 7.84503 6.0428 7.43802 5.4955 7.43802C4.94819 7.43802 4.5045 7.84503 4.5045 8.34711C4.5045 11.1632 6.93017 13.3884 10 13.3884C13.0698 13.3884 15.4955 11.1632 15.4955 8.34711C15.4955 7.84503 15.0518 7.43802 14.5045 7.43802Z"/>	
	</symbol>

	<!-- Сердце -->
	<symbol id="favorite" viewBox="0 0 24 24">
		<path d="M16.5 3C14.76 3 13.09 3.81 12 5.09C10.91 3.81 9.24 3 7.5 3C4.42 3 2 5.42 2 8.5C2 12.28 5.4 15.36 10.55 20.04L12 21.35L13.45 20.03C18.6 15.36 22 12.28 22 8.5C22 5.42 19.58 3 16.5 3ZM12.1 18.55L12 18.65L11.9 18.55C7.14 14.24 4 11.39 4 8.5C4 6.5 5.5 5 7.5 5C9.04 5 10.54 5.99 11.07 7.36H12.94C13.46 5.99 14.96 5 16.5 5C18.5 5 20 6.5 20 8.5C20 11.39 16.86 14.24 12.1 18.55Z"/>
	</symbol>
	
	<!-- Админка -->
	<symbol id="user" viewBox="0 0 20 20">
		<path fill-rule="evenodd" clip-rule="evenodd" d="M10 0C7.33187 0 5.16832 2.25743 5.16832 5.04132C5.16832 7.94092 7.39725 10.9091 10 10.9091C12.6027 10.9091 14.8317 7.94092 14.8317 5.04132C14.8317 2.25743 12.6681 0 10 0ZM6.91089 5.04132C6.91089 7.02058 8.4656 9.09091 10 9.09091C11.5344 9.09091 13.0891 7.02058 13.0891 5.04132C13.0891 3.26158 11.7057 1.81818 10 1.81818C8.29427 1.81818 6.91089 3.26158 6.91089 5.04132ZM18 17.438C18 14.1971 15.4824 11.5702 12.3762 11.5702H7.62376C4.51761 11.5702 2 14.1971 2 17.438V18.2645C2 18.6598 2.24487 19.0098 2.60574 19.1303C2.95497 19.2469 3.60579 19.4124 4.54879 19.5747C6.09577 19.8409 7.91606 20 10 20C12.0839 20 13.9042 19.8409 15.4512 19.5747C16.3942 19.4124 17.045 19.2469 17.3943 19.1303C17.7551 19.0098 18 18.6598 18 18.2645V17.438ZM12.3762 13.3884C14.52 13.3884 16.2574 15.2013 16.2574 17.438V17.5608C15.942 17.6355 15.5786 17.71 15.1676 17.7807C13.7133 18.031 11.9878 18.1818 10 18.1818C8.01216 18.1818 6.28666 18.031 4.8324 17.7807C4.42145 17.71 4.05797 17.6355 3.74257 17.5608V17.438C3.74257 15.2013 5.48001 13.3884 7.62376 13.3884H12.3762Z"/>
		<path fill-rule="evenodd" clip-rule="evenodd" d="M10 0C7.33187 0 5.16832 2.25743 5.16832 5.04132C5.16832 7.94092 7.39725 10.9091 10 10.9091C12.6027 10.9091 14.8317 7.94092 14.8317 5.04132C14.8317 2.25743 12.6681 0 10 0ZM6.91089 5.04132C6.91089 7.02058 8.4656 9.09091 10 9.09091C11.5344 9.09091 13.0891 7.02058 13.0891 5.04132C13.0891 3.26158 11.7057 1.81818 10 1.81818C8.29427 1.81818 6.91089 3.26158 6.91089 5.04132ZM18 17.438C18 14.1971 15.4824 11.5702 12.3762 11.5702H7.62376C4.51761 11.5702 2 14.1971 2 17.438V18.2645C2 18.6598 2.24487 19.0098 2.60574 19.1303C2.95497 19.2469 3.60579 19.4124 4.54879 19.5747C6.09577 19.8409 7.91606 20 10 20C12.0839 20 13.9042 19.8409 15.4512 19.5747C16.3942 19.4124 17.045 19.2469 17.3943 19.1303C17.7551 19.0098 18 18.6598 18 18.2645V17.438ZM12.3762 13.3884C14.52 13.3884 16.2574 15.2013 16.2574 17.438V17.5608C15.942 17.6355 15.5786 17.71 15.1676 17.7807C13.7133 18.031 11.9878 18.1818 10 18.1818C8.01216 18.1818 6.28666 18.031 4.8324 17.7807C4.42145 17.71 4.05797 17.6355 3.74257 17.5608V17.438C3.74257 15.2013 5.48001 13.3884 7.62376 13.3884H12.3762Z"/>
	</symbol>
	
	<!--  -->
	<symbol id="tel" viewBox="0 0 20 20">
		<path fill-rule="evenodd" clip-rule="evenodd" d="M11.6667 1.66667C11.2064 1.66667 10.8333 1.29357 10.8333 0.833333C10.8333 0.373096 11.2064 0 11.6667 0C16.2694 0 20 3.7306 20 8.33333C20 8.79357 19.6269 9.16667 19.1667 9.16667C18.7064 9.16667 18.3333 8.79357 18.3333 8.33333C18.3333 4.65107 15.3489 1.66667 11.6667 1.66667ZM13.5774 11.9107L11.6667 13.8215L6.17851 8.33333L8.08926 6.42259C8.41469 6.09715 8.41469 5.56951 8.08926 5.24408L3.92259 1.07741C3.59715 0.751974 3.06951 0.751974 2.74408 1.07741L0.244078 3.57741C0.0877974 3.73369 0 3.94565 0 4.16667C0 12.9111 7.08893 20 15.8333 20C16.0543 20 16.2663 19.9122 16.4226 19.7559L18.9226 17.2559C19.248 16.9305 19.248 16.4028 18.9226 16.0774L14.7559 11.9107C14.4305 11.5853 13.9028 11.5853 13.5774 11.9107ZM11.0774 15.5893C11.4028 15.9147 11.9305 15.9147 12.2559 15.5893L14.1667 13.6785L17.1548 16.6667L15.4922 18.3293C7.93925 18.1508 1.8492 12.0608 1.67069 4.50782L3.33333 2.84518L6.32149 5.83333L4.41074 7.74408C4.08531 8.06951 4.08531 8.59715 4.41074 8.92259L11.0774 15.5893ZM10.8333 4.16667C10.8333 4.6269 11.2064 5 11.6667 5C13.5073 5 15 6.49274 15 8.33333C15 8.79357 15.3731 9.16667 15.8333 9.16667C16.2936 9.16667 16.6667 8.79357 16.6667 8.33333C16.6667 5.57226 14.4277 3.33333 11.6667 3.33333C11.2064 3.33333 10.8333 3.70643 10.8333 4.16667Z"/>
		<path fill-rule="evenodd" clip-rule="evenodd" d="M11.6667 1.66667C11.2064 1.66667 10.8333 1.29357 10.8333 0.833333C10.8333 0.373096 11.2064 0 11.6667 0C16.2694 0 20 3.7306 20 8.33333C20 8.79357 19.6269 9.16667 19.1667 9.16667C18.7064 9.16667 18.3333 8.79357 18.3333 8.33333C18.3333 4.65107 15.3489 1.66667 11.6667 1.66667ZM13.5774 11.9107L11.6667 13.8215L6.17851 8.33333L8.08926 6.42259C8.41469 6.09715 8.41469 5.56951 8.08926 5.24408L3.92259 1.07741C3.59715 0.751974 3.06951 0.751974 2.74408 1.07741L0.244078 3.57741C0.0877974 3.73369 0 3.94565 0 4.16667C0 12.9111 7.08893 20 15.8333 20C16.0543 20 16.2663 19.9122 16.4226 19.7559L18.9226 17.2559C19.248 16.9305 19.248 16.4028 18.9226 16.0774L14.7559 11.9107C14.4305 11.5853 13.9028 11.5853 13.5774 11.9107ZM11.0774 15.5893C11.4028 15.9147 11.9305 15.9147 12.2559 15.5893L14.1667 13.6785L17.1548 16.6667L15.4922 18.3293C7.93925 18.1508 1.8492 12.0608 1.67069 4.50782L3.33333 2.84518L6.32149 5.83333L4.41074 7.74408C4.08531 8.06951 4.08531 8.59715 4.41074 8.92259L11.0774 15.5893ZM10.8333 4.16667C10.8333 4.6269 11.2064 5 11.6667 5C13.5073 5 15 6.49274 15 8.33333C15 8.79357 15.3731 9.16667 15.8333 9.16667C16.2936 9.16667 16.6667 8.79357 16.6667 8.33333C16.6667 5.57226 14.4277 3.33333 11.6667 3.33333C11.2064 3.33333 10.8333 3.70643 10.8333 4.16667Z"/>
	</symbol>
	
	<!--  -->
	<symbol id="mail" viewBox="0 0 20 16">
		<path d="M16.6667 0.5H3.33337C1.95275 0.5 0.833374 1.61937 0.833374 3V13C0.833374 14.3806 1.95275 15.5 3.33337 15.5H16.6667C18.0473 15.5 19.1667 14.3806 19.1667 13V3C19.1667 1.61937 18.0473 0.5 16.6667 0.5ZM16.6667 2.16667C16.763 2.16667 16.8555 2.18292 16.9413 2.21312L10 7.76625L3.05879 2.21312C3.14462 2.18292 3.23712 2.16667 3.33337 2.16667H16.6667ZM16.6667 13.8333H3.33337C2.87317 13.8333 2.50004 13.4602 2.50004 13V3.90042L9.47941 9.48396C9.6315 9.60583 9.81567 9.66667 10 9.66667C10.1844 9.66667 10.3686 9.60583 10.5207 9.48396L17.5 3.90042V13C17.5 13.4602 17.1269 13.8333 16.6667 13.8333Z"/>
	</symbol>
	
	<!-- Корзина в продуктах -->
	<symbol id="cart" viewBox="0 0 20 20">
		<path fill-rule="evenodd" clip-rule="evenodd" d="M19.0906 4.13223H4.87455L4.40677 0.783328C4.34404 0.334204 3.95991 0 3.50643 0H0.909076C0.407007 0 0 0.407014 0 0.909091C0 1.41117 0.407007 1.81818 0.909076 1.81818H2.71552L4.33767 13.4315C4.40041 13.8807 4.78453 14.2149 5.23801 14.2149H17.359C17.7892 14.2149 18.1605 13.9133 18.2488 13.4922L19.9803 5.22775C20.0987 4.66294 19.6677 4.13223 19.0906 4.13223ZM5.12851 5.95041L6.02893 12.3967H16.6207L17.9713 5.95041H5.12851ZM3.46315 17.438C3.46315 18.8627 4.65462 20 6.10379 20C7.55297 20 8.74444 18.8627 8.74444 17.438C8.74444 16.0134 7.55297 14.876 6.10379 14.876C4.65462 14.876 3.46315 16.0134 3.46315 17.438ZM6.92629 17.438C6.92629 17.8391 6.56726 18.1818 6.10379 18.1818C5.64033 18.1818 5.2813 17.8391 5.2813 17.438C5.2813 17.0369 5.64033 16.6942 6.10379 16.6942C6.56726 16.6942 6.92629 17.0369 6.92629 17.438ZM16.4932 20C15.0441 20 13.8526 18.8627 13.8526 17.438C13.8526 16.0134 15.0441 14.876 16.4932 14.876C17.9424 14.876 19.1339 16.0134 19.1339 17.438C19.1339 18.8627 17.9424 20 16.4932 20ZM17.3157 17.438C17.3157 17.8391 16.9567 18.1818 16.4932 18.1818C16.0298 18.1818 15.6707 17.8391 15.6707 17.438C15.6707 17.0369 16.0298 16.6942 16.4932 16.6942C16.9567 16.6942 17.3157 17.0369 17.3157 17.438Z" />
		<path fill-rule="evenodd" clip-rule="evenodd" d="M19.0906 4.13223H4.87455L4.40677 0.783328C4.34404 0.334204 3.95991 0 3.50643 0H0.909076C0.407007 0 0 0.407014 0 0.909091C0 1.41117 0.407007 1.81818 0.909076 1.81818H2.71552L4.33767 13.4315C4.40041 13.8807 4.78453 14.2149 5.23801 14.2149H17.359C17.7892 14.2149 18.1605 13.9133 18.2488 13.4922L19.9803 5.22775C20.0987 4.66294 19.6677 4.13223 19.0906 4.13223ZM5.12851 5.95041L6.02893 12.3967H16.6207L17.9713 5.95041H5.12851ZM3.46315 17.438C3.46315 18.8627 4.65462 20 6.10379 20C7.55297 20 8.74444 18.8627 8.74444 17.438C8.74444 16.0134 7.55297 14.876 6.10379 14.876C4.65462 14.876 3.46315 16.0134 3.46315 17.438ZM6.92629 17.438C6.92629 17.8391 6.56726 18.1818 6.10379 18.1818C5.64033 18.1818 5.2813 17.8391 5.2813 17.438C5.2813 17.0369 5.64033 16.6942 6.10379 16.6942C6.56726 16.6942 6.92629 17.0369 6.92629 17.438ZM16.4932 20C15.0441 20 13.8526 18.8627 13.8526 17.438C13.8526 16.0134 15.0441 14.876 16.4932 14.876C17.9424 14.876 19.1339 16.0134 19.1339 17.438C19.1339 18.8627 17.9424 20 16.4932 20ZM17.3157 17.438C17.3157 17.8391 16.9567 18.1818 16.4932 18.1818C16.0298 18.1818 15.6707 17.8391 15.6707 17.438C15.6707 17.0369 16.0298 16.6942 16.4932 16.6942C16.9567 16.6942 17.3157 17.0369 17.3157 17.438Z" />
	</symbol>
	
	<!--  -->
	<symbol id="play" viewBox="0 0 90 90">

	</symbol>
	
	<!--  -->
	<symbol id="play" viewBox="0 0 90 90">

	</symbol>
</svg>